<ttFont>
          <CharString index="0">
            rmoveto
            -13 -2 2 -8 -12 -63 callsubr
            -4 -4 -43 callsubr
            10 -1 vhcurveto
            -101 callsubr
            return
          </CharString>
          <CharString index="1">
            hmoveto
            -10 callgsubr
            -8 1 -2 9 -1 vhcurveto
            118 hlineto
            13 1 -2 4 20 -2 callsubr
            13 1 7 -12 2 vhcurveto
            return
          </CharString>
          <CharString index="2">
            259 1112 21 hstem
            327 -55 callgsubr
            136 -28 callgsubr
            -37 -4 -58 callgsubr
            355 -94 callsubr
            -385 hmoveto
            -37 callgsubr
            136 -28 callgsubr
            -37 -4 -58 callgsubr
            355 -94 callsubr
            432 hmoveto
            -500 -45 callgsubr
            383 -94 callsubr
            return
          </CharString>
          <CharString index="3">
            -6 -16 callsubr
            hhcurveto
            -10 -2 -1 -11 -1 hvcurveto
            -129 vlineto
            -11 1 2 -1 10 3 5 0 6 hhcurveto
            100 -9 callgsubr
            129 vlineto
            14 -2 -8 -2 -15 hhcurveto
            return
          </CharString>
          <CharString index="4">
            -99 callgsubr
            105 620 hlineto
            9 6 -1 10 vhcurveto
            133 95 rmoveto
            -293 -109 -95 109 -335 105 vlineto
            45 10 12 46 hvcurveto
            608 vlineto
            -73 callsubr
            return
          </CharString>
          <CharString index="5">
            -60 callsubr
            140 75 -58 hlineto
            -37 -4 -58 callgsubr
            355 -94 callsubr
            160 hmoveto
            -423 vlineto
            -43 27 -34 62 -58 callsubr
            -5 -77 callgsubr
            347 -94 callsubr
            return
          </CharString>
          <CharString index="6">
            117 hlineto
            10 1 1 2 8 4 0 4 6 -2 callsubr
            12 2 8 -13 2 vhcurveto
            return
          </CharString>
          <CharString index="7">
            -172 27 rlineto
            -3 -3 0 -2 hhcurveto
            -35 -20 -23 -29 hvcurveto
            -62 vlineto
            0 0 -6 3 vhcurveto
            53 hlineto
            2 2 0 8 hvcurveto
            4 vlineto
            11 5 4 8 vhcurveto
            1 2 0 2 hhcurveto
            172 -25 rlineto
            2 3 0 2 hhcurveto
            36 20 21 31 hvcurveto
            63 vlineto
            0 0 3 -3 vhcurveto
            endchar
          </CharString>
          <CharString index="8">
            27 callsubr
            -389 -34 callgsubr
            80 -17 callsubr
            0 7 vvcurveto
            61 vlineto
            4 0 3 -8 vhcurveto
            -5 -77 callgsubr
            280 vlineto
            53 -17 54 -92 vhcurveto
            return
          </CharString>
          <CharString index="9">
            243 723 20 callgsubr
            -70 -290 -290 13 -73 155 hvcurveto
            127 95 -74 20 callsubr
            return
          </CharString>
          <CharString index="10">
            75 85 75 vstem
            176 hmoveto
            372 723 rlineto
            -80 hlineto
            -372 -723 rlineto
            388 279 rmoveto
            43 -34 vlineto
            -70 -5 -32 -128 hvcurveto
            -2 vlineto
            -122 5 -38 60 vhcurveto
            44 42 -16 hlineto
            -16 -2 5 8 hvcurveto
            211 vlineto
            8 2 5 16 vhcurveto
            -323 401 rmoveto
            43 -34 vlineto
            -70 -5 -32 -128 hvcurveto
            -2 vlineto
            -122 5 -38 60 vhcurveto
            44 42 -16 hlineto
            -16 -2 5 8 hvcurveto
            211 vlineto
            8 2 5 16 vhcurveto
            373 -358 rmoveto
            -43 14 vlineto
            17 2 -5 -8 hvcurveto
            -211 vlineto
            -8 -2 -5 -17 vhcurveto
            -14 -42 44 hlineto
            59 5 38 122 hvcurveto
            2 vlineto
            128 -6 32 -68 vhcurveto
            -373 401 rmoveto
            -43 14 vlineto
            17 2 -5 -8 hvcurveto
            -211 vlineto
            -8 -2 -5 -17 vhcurveto
            -14 -42 44 hlineto
            59 5 38 122 hvcurveto
            2 vlineto
            128 -6 32 -68 vhcurveto
            return
          </CharString>
          <CharString index="11">
            rmoveto
            -4 -3 0 -8 hvcurveto
            -5 vlineto
            -25 -11 -8 -14 -3 -2 0 1 -3 vhcurveto
            -306 43 rlineto
            1 -7 -7 0 -6 hhcurveto
            -58 -33 -40 -50 hvcurveto
            -110 vlineto
            0 0 -6 7 vhcurveto
            91 hlineto
            4 3 0 8 hvcurveto
            5 vlineto
            25 11 8 14 vhcurveto
            2 3 -1 3 hhcurveto
            306 -43 rlineto
            -1 7 6 -1 7 hhcurveto
            58 33 40 51 hvcurveto
            110 vlineto
            0 0 6 -7 vhcurveto
            return
          </CharString>
          <CharString index="12">
            rmoveto
            92 -193 rlineto
            72 -6 callgsubr
            59 3 -2 -51 vhcurveto
            endchar
          </CharString>
          <CharString index="13">
            vlineto
            24 -15 16 -21 vhcurveto
            return
          </CharString>
          <CharString index="14">
            rmoveto
            -459 -90 callsubr
            422 -51 callgsubr
            return
          </CharString>
          <CharString index="15">
            -24 callsubr
            90 193 -40 -20 hstemhm
            -9 callsubr
            175 161 hintmask 11011110
            -101 callgsubr
            376 rmoveto
            -460 vlineto
            -24 15 -16 21 vhcurveto
            259 95 -108 hlineto
            hintmask 11101110
            -20 callgsubr
            vlineto
            hintmask 11011110
            124 hlineto
            -50 callsubr
            return
          </CharString>
          <CharString index="16">
            308 314 rmoveto
            95 -176 vlineto
            -53 -15 -25 -47 hvcurveto
            -300 vlineto
            -26 10 -11 35 vhcurveto
            135 285 hlineto
            18 2 11 26 vhcurveto
            308 -121 rmoveto
            -180 -68 -13 callgsubr
            -83 -95 245 hlineto
            52 -3 23 33 hvcurveto
            -222 572 rmoveto
            95 -246 vlineto
            -49 0 -34 -33 hvcurveto
            -126 180 68 vlineto
            19 1 11 30 vhcurveto
            125 95 rmoveto
            -285 -53 callgsubr
            -24 -95 193 hlineto
            35 3 20 28 hvcurveto
            7 0 7 8 vvcurveto
            282 vlineto
            46 -6 11 -39 vhcurveto
            return
          </CharString>
          <CharString index="17">
            vlineto
            -24 15 -16 21 vhcurveto
            114 return
          </CharString>
          <CharString index="18">
            -9 -2 -1 -4 -7 -3 0 -3 -3 vvcurveto
            return
          </CharString>
          <CharString index="19">
            151 -67 callsubr
            -10 -2 -1 -11 -1 hvcurveto
            -129 vlineto
            -11 1 2 -1 10 3 5 0 6 hhcurveto
            40 hlineto
            22 -160 rlineto
            65 -9 callgsubr
            289 vlineto
            14 -2 -8 -2 -15 hhcurveto
            return
          </CharString>
          <CharString index="20">
            620 -73 callgsubr
            -104 hlineto
            -33 callsubr
            -586 vlineto
            -26 3 1 18 -14 90 -11 70 -22 115 -29 187 rrcurveto
            103 -16 -3 40 -71 hhcurveto
            -217 -94 123 hlineto
            21 -1 10 -3 6 -36 40 -250 25 -144 16 -84 rrcurveto
            -101 19 13 -10 78 hhcurveto
            142 hlineto
            46 9 11 46 hvcurveto
            -548 537 rmoveto
            -594 95 vlineto
            36 9 11 46 hvcurveto
            497 -94 callsubr
            return
          </CharString>
          <CharString index="21">
            -723 -45 callgsubr
            569 -54 callsubr
            return
          </CharString>
          <CharString index="22">
            -35 callsubr
            -355 -90 callsubr
            393 hlineto
            63 -27 44 -82 vhcurveto
            return
          </CharString>
          <CharString index="23">
            -37 callgsubr
            136 -28 callgsubr
            -37 -4 -58 callgsubr
            355 -94 callsubr
            36 callgsubr
            return
          </CharString>
          <CharString index="24">
            -308 444 44 191 44 hstemhm
            35 57 -53 53 11 63 hintmask 11001000
            103 723 -81 callgsubr
            hintmask 11101000
            -56 callsubr
            hintmask 11011000
            57 235 rmoveto
            44 -53 -34 vlineto
            -5 4 -5 7 vhcurveto
            endchar
          </CharString>
          <CharString index="25">
            95 -79 callsubr
            return
          </CharString>
          <CharString index="26">
            224 rmoveto
            -70 -5 -4 -67 -67 5 -5 70 70 5 5 67 67 -5 4 -70 hvcurveto
            return
          </CharString>
          <CharString index="27">
            rmoveto
            -126 vlineto
            -7 0 -1 -11 vhcurveto
            -18 -40 57 hlineto
            28 5 20 15 hvcurveto
            102 vlineto
            25 -10 12 -22 vhcurveto
            -76 -174 rmoveto
            40 -41 vlineto
            -24 -17 -15 -23 hvcurveto
            -70 vlineto
            -29 10 -8 26 vhcurveto
            25 95 hlineto
            6 0 4 11 vhcurveto
            4 -60 rmoveto
            -45 114 35 vlineto
            5 0 5 -9 vhcurveto
            -68 198 rmoveto
            36 return
          </CharString>
          <CharString index="28">
            -108 -78 callsubr
            return
          </CharString>
          <CharString index="29">
            hlineto
            -83 callgsubr
            return
          </CharString>
          <CharString index="30">
            218 rmoveto
            -9 0 -2 -9 hvcurveto
            -93 vlineto
            -17 2 -2 -19 vhcurveto
            -93 -95 242 hlineto
            24 4 12 16 hvcurveto
            176 vlineto
            13 -4 1 -7 vhcurveto
            return
          </CharString>
          <CharString index="31">
            51 -345 hlineto
            -43 27 -35 62 vhcurveto
            61 610 hlineto
            20 9 17 33 vhcurveto
            41 hlineto
            8 0 3 4 hvcurveto
            61 vlineto
            7 -6 1 0 vhcurveto
            return
          </CharString>
          <CharString index="32">
            43 -27 34 -62 vhcurveto
            return
          </CharString>
          <CharString index="33">
            rmoveto
            -112 hlineto
            -67 -107 -67 107 rlineto
            -122 hlineto
            96 -131 rlineto
            -27 19 11 -5 28 hhcurveto
            70 hlineto
            37 0 -2 49 32 hvcurveto
            endchar
          </CharString>
          <CharString index="34">
            46 -10 11 -45 vhcurveto
            return
          </CharString>
          <CharString index="35">
            rmoveto
            723 -105 -96 callgsubr
            endchar
          </CharString>
          <CharString index="36">
            -14 -6 -5 -8 vhcurveto
            -1 -2 1 -1 hhcurveto
            return
          </CharString>
          <CharString index="37">
            -105 -70 callgsubr
            return
          </CharString>
          <CharString index="38">
            0 -53 callsubr
            return
          </CharString>
          <CharString index="39">
            13 0 274 -253 -21 314 95 314 -20 return
          </CharString>
          <CharString index="40">
            rmoveto
            -6 -16 callsubr
            hhcurveto
            return
          </CharString>
          <CharString index="41">
            -75 callgsubr
            -54 -75 return
          </CharString>
          <CharString index="42">
            rmoveto
            75 -97 vlineto
            -145 -8 -41 -206 -209 5 -44 148 hvcurveto
            97 75 -54 20 callsubr
            6 0 6 7 vvcurveto
            1 callsubr
            7 0 6 5 vvcurveto
            19 35 callsubr
            return
          </CharString>
          <CharString index="43">
            17 callsubr
            532 95 -95 96 return
          </CharString>
          <CharString index="44">
            vvcurveto
            -91 vlineto
            -6 0 return
          </CharString>
          <CharString index="45">
            199 -107 callsubr
            return
          </CharString>
          <CharString index="46">
            19 -3 4 -17 vhcurveto
            -86 hmoveto
            -24 hlineto
            -26 -8 -7 -30 hvcurveto
            -91 vlineto
            -24 17 -11 24 vhcurveto
            46 return
          </CharString>
          <CharString index="47">
            56 -55 callgsubr
            return
          </CharString>
          <CharString index="48">
            209 -209 259 -259 269 return
          </CharString>
          <CharString index="49">
            vhcurveto
            100 -17 callsubr
            0 7 vvcurveto
            61 vlineto
            4 0 3 -8 vhcurveto
            return
          </CharString>
          <CharString index="50">
            95 -97 vlineto
            -82 -37 -44 -63 hvcurveto
            -156 151 138 vlineto
            19 1 11 30 vhcurveto
            return
          </CharString>
          <CharString index="51">
            -52 -279 rmoveto
            44 -47 vlineto
            -9 -1 0 -7 hvcurveto
            -37 vlineto
            return
          </CharString>
          <CharString index="52">
            rmoveto
            -7 -3 0 -6 hvcurveto
            -3 vlineto
            return
          </CharString>
          <CharString index="53">
            vlineto
            -75 callsubr
            return
          </CharString>
          <CharString index="54">
            -25 callgsubr
            75 return
          </CharString>
          <CharString index="55">
            -11 -223 76 -75 75 147 75 return
          </CharString>
          <CharString index="56">
            rmoveto
            -95 74 -35 callsubr
            -196 vlineto
            -18 callgsubr
            -74 -95 127 hlineto
            101 57 38 184 177 -30 46 -128 hvcurveto
            endchar
          </CharString>
          <CharString index="57">
            21 16 16 24 hvcurveto
            626 vlineto
            46 -10 11 -46 vhcurveto
            return
          </CharString>
          <CharString index="58">
            rmoveto
            -218 -175 -174 -217 -214 175 -175 218 212 176 175 214 217 -176 174 -212 hvcurveto
            return
          </CharString>
          <CharString index="59">
            rmoveto
            100 -559 -100 vlineto
            return
          </CharString>
          <CharString index="60">
            167 rmoveto
            -102 hlineto
            -61 -98 -61 98 rlineto
            -111 hlineto
            88 -119 rlineto
            -25 17 10 -5 25 hhcurveto
            64 hlineto
            34 0 -1 44 29 hvcurveto
            endchar
          </CharString>
          <CharString index="61">
            0 75 350 30 callgsubr
            return
          </CharString>
          <CharString index="62">
            -16 callgsubr
            -26 -10 return
          </CharString>
          <CharString index="63">
            -73 callgsubr
            -77 vlineto
            -14 -2 -34 31 vhcurveto
            160 -541 hlineto
            -46 10 -11 45 vhcurveto
            105 683 hlineto
            24 -15 16 -21 vhcurveto
            76 hmoveto
            return
          </CharString>
          <CharString index="64">
            vvcurveto
            -2 callgsubr
            return
          </CharString>
          <CharString index="65">
            16 callsubr
            -78 -53 callgsubr
            -88 -95 127 hlineto
            92 56 26 86 hvcurveto
            90 vlineto
            6 0 15 -14 vhcurveto
            return
          </CharString>
          <CharString index="66">
            vlineto
            -7 0 -4 -10 vhcurveto
            -33 -37 33 hlineto
            10 1 -3 -8 hvcurveto
            return
          </CharString>
          <CharString index="67">
            rmoveto
            95 -197 vlineto
            -82 -7 -44 -63 hvcurveto
            -86 vlineto
            -40 -1 -3 51 vhcurveto
            110 111 hlineto
            19 1 11 30 vhcurveto
            return
          </CharString>
          <CharString index="68">
            150 vstem
            return
          </CharString>
          <CharString index="69">
            723 -124 vlineto
            -33 callsubr
            -626 vlineto
            -46 return
          </CharString>
          <CharString index="70">
            hstemhm
            56 150 -140 150 return
          </CharString>
          <CharString index="71">
            vlineto
            -68 callgsubr
            return
          </CharString>
          <CharString index="72">
            -47 callgsubr
            -19 hvcurveto
            return
          </CharString>
          <CharString index="73">
            rmoveto
            -45 callsubr
            return
          </CharString>
          <CharString index="74">
            -21 -15 -16 -24 hvcurveto
            return
          </CharString>
          <CharString index="75">
            11 18 hvcurveto
            return
          </CharString>
          <CharString index="76">
            -60 253 110 hstem
            58 373 vstem
            431 253 rmoveto
            110 -373 -110 vlineto
            endchar
          </CharString>
          <CharString index="77">
            rmoveto
            -14 0 -15 -6 hvcurveto
            -90 vlineto
            -86 56 -26 92 vhcurveto
            return
          </CharString>
          <CharString index="78">
            hstemhm
            -41 callgsubr
            return
          </CharString>
          <CharString index="79">
            vstem
            323 499 rmoveto
            -82 52 -225 -285 225 -296 82 52 -148 244 rlineto
            return
          </CharString>
          <CharString index="80">
            0 95 628 -20 return
          </CharString>
          <CharString index="81">
            21 -21 499 -20 return
          </CharString>
          <CharString index="82">
            283 -56 vlineto
            -61 -8 -23 -74 hvcurveto
            -186 vlineto
            return
          </CharString>
          <CharString index="83">
            413 0 95 405 -20 return
          </CharString>
          <CharString index="84">
            vlineto
            17 -1 4 -19 vhcurveto
            return
          </CharString>
          <CharString index="85">
            -52 callgsubr
            -75 return
          </CharString>
          <CharString index="86">
            -93 callsubr
            endchar
          </CharString>
          <CharString index="87">
            266 rmoveto
            -225 285 -82 -52 148 -233 -148 -244 82 -52 rlineto
            return
          </CharString>
          <CharString index="88">
            -73 callgsubr
            -684 vlineto
            -24 15 -15 21 vhcurveto
            return
          </CharString>
          <CharString index="89">
            44 63 hvcurveto
            return
          </CharString>
          <CharString index="90">
            hlineto
            0 6 return
          </CharString>
          <CharString index="91">
            -5 0 -3 return
          </CharString>
          <CharString index="92">
            -21 -13 1 -7 hhcurveto
            -11 0 -2 -8 hvcurveto
            return
          </CharString>
          <CharString index="93">
            -2 -69 callsubr
            return
          </CharString>
          <CharString index="94">
            hstem
            -7 callsubr
            return
          </CharString>
          <CharString index="95">
            -155 -13 return
          </CharString>
          <CharString index="96">
            723 -61 vlineto
            -62 -27 -34 -43 hvcurveto
            -569 19 callsubr
            return
          </CharString>
          <CharString index="97">
            -94 60 vlineto
            84 12 18 62 hvcurveto
            endchar
          </CharString>
          <CharString index="98">
            13 callsubr
            165 160 return
          </CharString>
          <CharString index="99">
            -47 vlineto
            -14 4 -16 21 vhcurveto
            return
          </CharString>
          <CharString index="100">
            51 155 125 return
          </CharString>
          <CharString index="101">
            hstemhm
            56 160 -160 35 callgsubr
            160 -160 180 return
          </CharString>
          <CharString index="102">
            rmoveto
            -110 hlineto
            -51 1 -3 -40 hvcurveto
            -86 vlineto
            -63 7 -44 82 vhcurveto
            return
          </CharString>
          <CharString index="103">
            -100 -96 45 hlineto
            33 22 22 32 hvcurveto
            return
          </CharString>
          <CharString index="104">
            -11 -19 hvcurveto
            return
          </CharString>
          <CharString index="105">
            vvcurveto
            91 vlineto
            return
          </CharString>
          <CharString index="106">
            rmoveto
            326 863 rlineto
            -80 hlineto
            -326 -863 rlineto
            endchar
          </CharString>
          <CharString index="107">
            vlineto
            14 -2 -8 -2 -15 hhcurveto
            endchar
          </CharString>
          <CharString index="108">
            254 vlineto
            return
          </CharString>
          <CharString index="109">
            -83 callgsubr
            306 vlineto
            return
          </CharString>
          <CharString index="110">
            -12 -69 callsubr
            return
          </CharString>
          <CharString index="111">
            21 -21 425 75 return
          </CharString>
          <CharString index="112">
            vhcurveto
            27 callsubr
            return
          </CharString>
          <CharString index="113">
            75 140 75 return
          </CharString>
          <CharString index="114">
            -1 0 14 callsubr
            return
          </CharString>
          <CharString index="115">
            160 vstem
            return
          </CharString>
          <CharString index="116">
            150 125 155 vstem
            return
          </CharString>
          <CharString index="117">
            105 vlineto
            45 10 11 46 hvcurveto
            return
          </CharString>
          <CharString index="118">
            -73 callgsubr
            -95 return
          </CharString>
          <CharString index="119">
            75 425 -20 return
          </CharString>
          <CharString index="120">
            70 160 return
          </CharString>
          <CharString index="121">
            12 callsubr
            50 1 callgsubr
            56 150 return
          </CharString>
          <CharString index="122">
            -125 189 77 vlineto
            14 2 34 -31 vhcurveto
            return
          </CharString>
          <CharString index="123">
            -19 -1 -4 -17 hvcurveto
            return
          </CharString>
          <CharString index="124">
            96 -95 95 return
          </CharString>
          <CharString index="125">
            96 253 rlineto
            -80 hlineto
            -96 -253 rlineto
            return
          </CharString>
          <CharString index="126">
            vlineto
            -43 27 -34 62 vhcurveto
            return
          </CharString>
          <CharString index="127">
            hlineto
            -37 -4 -32 callsubr
            return
          </CharString>
          <CharString index="128">
            160 175 return
          </CharString>
          <CharString index="129">
            147 hlineto
            return
          </CharString>
          <CharString index="130">
            -42 0 75 137 75 138 75 return
          </CharString>
          <CharString index="131">
            -166 -134 96 785 96 hstem
            return
          </CharString>
          <CharString index="132">
            -64 callsubr
            hstemhm
            return
          </CharString>
          <CharString index="133">
            -208 -110 95 739 95 hstem
            return
          </CharString>
          <CharString index="134">
            84 75 rmoveto
            return
          </CharString>
          <CharString index="135">
            vlineto
            -75 callgsubr
            hintmask 11111000
            return
          </CharString>
          <CharString index="136">
            301 425 rmoveto
            75 -97 vlineto
            return
          </CharString>
          <CharString index="137">
            100 hstem
            63 559 vstem
            622 return
          </CharString>
          <CharString index="138">
            vmoveto
            100 -559 -100 vlineto
            endchar
          </CharString>
          <CharString index="139">
            0 12 callsubr
            return
          </CharString>
          <CharString index="140">
            54 1 1 53 hvcurveto
            return
          </CharString>
          <CharString index="141">
            42 237 43 return
          </CharString>
          <CharString index="142">
            4 11 37 vhcurveto
            return
          </CharString>
        <CharString name=".notdef">
          -299 endchar
        </CharString>
        <CharString name="A">
          -64 callgsubr
          -12 callgsubr
          149 8 callsubr
          340 628 rmoveto
          95 -214 vlineto
          -103 callsubr
          endchar
        </CharString>
        <CharString name="AE">
          353 0 140 180 115 -100 95 153 140 -95 95 -29 callsubr
          149 160 54 -59 callsubr
          hintmask 1100111001000000
          863 140 29 callgsubr
          46 11 10 45 hvcurveto
          -60 380 -82 callgsubr
          50 348 rmoveto
          -80 callgsubr
          hintmask 1010111010000000
          -513 -10 rmoveto
          95 -214 -96 callgsubr
          105 620 hlineto
          9 6 -1 10 vhcurveto
          133 95 rmoveto
          -293 vlineto
          hintmask 1101011010000000
          -109 -95 109 hlineto
          hintmask 1100111100000000
          -335 105 vlineto
          45 10 12 46 hvcurveto
          608 vlineto
          -73 callsubr
          endchar
        </CharString>
        <CharString name="Aacute">
          -64 callgsubr
          30 193 -29 callsubr
          35 74 40 160 hintmask 11101110
          340 628 rmoveto
          95 -214 vlineto
          -103 callsubr
          hintmask 11111110
          -147 30 -98 callgsubr
        </CharString>
        <CharString name="Acircumflex">
          -64 callgsubr
          40 173 -12 callgsubr
          149 8 callsubr
          340 628 rmoveto
          95 -214 vlineto
          -103 callsubr
          -204 213 rmoveto
          -107 callgsubr
        </CharString>
        <CharString name="Adieresis">
          -64 callgsubr
          61 138 -29 callsubr
          -113 -33 callgsubr
          -115 160 hintmask 11111001
          340 628 rmoveto
          95 -214 vlineto
          -103 callsubr
          hintmask 11110110
          -118 -106 callgsubr
        </CharString>
        <CharString name="Agrave">
          -64 callgsubr
          30 193 -7 callgsubr
          72 37 160 hintmask 11101010
          340 628 rmoveto
          95 -214 vlineto
          -103 callsubr
          hintmask 11111110
          -306 223 -95 callsubr
        </CharString>
        <CharString name="Aring">
          -64 callgsubr
          28 65 103 64 -29 callsubr
          -42 65 104 62 -40 160 hintmask 1110110010000000
          340 628 rmoveto
          95 -214 vlineto
          -103 callsubr
          hintmask 1111101100000000
          -179 260 rmoveto
          -65 -52 -52 -63 -64 52 -53 65 63 51 53 64 63 -51 52 -63 hvcurveto
          -64 vmoveto
          28 24 -22 -29 -29 -24 -23 -28 -29 -23 23 29 29 23 22 29 hvcurveto
          endchar
        </CharString>
        <CharString name="Atilde">
          -64 callgsubr
          -39 callgsubr
          71 160 -82 60 171 160 -138 60 hintmask 1110010100000000
          hintmask 1110001100000000
          340 628 rmoveto
          95 vlineto
          hintmask 1110010100000000
          -214 hlineto
          -103 callsubr
          hintmask 1111010010000000
          -73 183 -55 callsubr
          hintmask 1110110010000000
          -71 callsubr
          hintmask 1111001010000000
          -100 callsubr
        </CharString>
        <CharString name="B">
          64 0 94 250 95 189 95 -29 callsubr
          152 158 -145 160 hintmask 11111000
          340 628 rmoveto
          95 -214 vlineto
          -45 -10 -11 -46 hvcurveto
          -611 vlineto
          -45 10 -10 45 vhcurveto
          105 620 hlineto
          9 6 -1 10 vhcurveto
          hintmask 11110100
          149 -314 rmoveto
          -191 vlineto
          -18 -15 -11 -26 vhcurveto
          -84 -94 207 hlineto
          73 5 49 40 hvcurveto
          148 vlineto
          46 -6 31 -59 vhcurveto
          hintmask 11111000
          -108 409 rmoveto
          -235 vlineto
          -28 -2 -21 -36 vhcurveto
          -74 -95 164 hlineto
          93 13 40 70 hvcurveto
          192 vlineto
          46 -4 31 -59 vhcurveto
          endchar
        </CharString>
        <CharString name="C">
          60 0 95 533 95 hstem
          63 35 callgsubr
          8 callsubr
          243 hmoveto
          723 -12 vlineto
          -12 callsubr
          -70 -290 -290 13 -73 155 hvcurveto
          52 11 callsubr
          88 vlineto
          -94 callgsubr
          8 -500 rmoveto
          -42 callsubr
          endchar
        </CharString>
        <CharString name="CR">
          -299 endchar
        </CharString>
        <CharString name="Ccedilla">
          60 -183 103 80 33 -33 95 533 95 hstemhm
          63 180 71 75 9 160 hintmask 11011100
          243 hmoveto
          723 -12 vlineto
          -12 callsubr
          -70 -290 -290 13 -73 155 hvcurveto
          52 11 callsubr
          88 vlineto
          -94 callgsubr
          8 -500 rmoveto
          hintmask 10111110
          -42 callsubr
          -155 -190 rmoveto
          -75 -84 hlineto
          hintmask 10111100
          33 callgsubr
          hintmask 11011100
          -15 callsubr
          hintmask 11011110
          -10 callsubr
        </CharString>
        <CharString name="D">
          66 -1 17 callsubr
          533 95 -29 callsubr
          145 170 hintmask 01111000
          261 723 -62 callgsubr
          hintmask 10111000
          -30 callgsubr
        </CharString>
        <CharString name="E">
          -59 callgsubr
          -7 callgsubr
          -59 callsubr
          hintmask 11110010
          -95 callgsubr
          414 140 29 callgsubr
          46 11 10 45 hvcurveto
          hintmask 11110100
          -60 380 -82 callgsubr
          hintmask 11111000
          50 348 rmoveto
          -80 callgsubr
          endchar
        </CharString>
        <CharString name="Eacute">
          -59 callgsubr
          30 193 -7 callgsubr
          -59 callsubr
          -262 72 hintmask 1110100100000000
          -95 callgsubr
          414 140 29 callgsubr
          46 11 10 45 hvcurveto
          hintmask 1110101000000000
          -60 380 -82 callgsubr
          hintmask 1110110000000000
          50 348 rmoveto
          -80 callgsubr
          hintmask 1111100010000000
          -180 115 -98 callgsubr
        </CharString>
        <CharString name="Ecircumflex">
          -59 callgsubr
          40 173 -7 callgsubr
          -59 callsubr
          hintmask 11111001
          -95 callgsubr
          414 140 29 callgsubr
          46 11 10 45 hvcurveto
          hintmask 11111010
          -60 380 -82 callgsubr
          hintmask 11111100
          50 348 rmoveto
          -80 callgsubr
          -237 298 rmoveto
          -107 callgsubr
        </CharString>
        <CharString name="Edieresis">
          -59 callgsubr
          61 138 -29 callsubr
          -101 139 2 -59 callsubr
          -172 139 hintmask 1111100001000000
          -95 callgsubr
          414 140 rmoveto
          hintmask 0010000100000000
          -3 callgsubr
          hlineto
          hintmask 0010000001000000
          212 -54 callgsubr
          hintmask 1000000010000000
          -60 380 -82 callgsubr
          hintmask 0001100001000000
          50 348 rmoveto
          -80 callgsubr
          -151 284 -104 callgsubr
          hintmask 0001010000000000
          -10 callgsubr
          hintmask 0100001000000000
          -100 callgsubr
        </CharString>
        <CharString name="Egrave">
          -59 callgsubr
          30 193 -7 callgsubr
          84 -84 209 -209 269 hintmask 11101100
          -95 callgsubr
          414 140 29 callgsubr
          46 11 10 45 hvcurveto
          hintmask 11111001
          -60 380 -82 callgsubr
          50 348 rmoveto
          hintmask 11111100
          -80 callgsubr
          hintmask 11101010
          -339 308 -95 callsubr
        </CharString>
        <CharString name="Eth">
          72 -1 17 callsubr
          214 94 225 95 hstemhm
          77 160 145 170 hintmask 01111100
          343 309 rmoveto
          94 -333 -94 vlineto
          257 414 -62 callgsubr
          hintmask 10111100
          -30 callgsubr
        </CharString>
        <CharString name="Euro">
          32 0 140 134 70 40 70 129 140 -7 callgsubr
          199 -199 259 hintmask 11111100
          -95 callgsubr
          414 140 29 callgsubr
          46 11 10 45 hvcurveto
          -70 219 rmoveto
          70 -199 -70 vlineto
          hintmask 11111010
          199 110 rmoveto
          70 -199 -70 vlineto
          259 339 rmoveto
          hintmask 11111100
          -80 callgsubr
          endchar
        </CharString>
        <CharString name="F">
          -6 21 -21 329 115 138 141 -7 callgsubr
          209 -209 249 hintmask 11111000
          231 hmoveto
          723 -105 vlineto
          -45 -10 -12 -46 hvcurveto
          -609 vlineto
          -46 10 -10 45 vhcurveto
          354 444 -82 callgsubr
          hintmask 11110100
          40 339 rmoveto
          -249 -141 192 -54 callgsubr
          endchar
        </CharString>
        <CharString name="G">
          70 0 95 204 95 234 95 hstem
          63 35 callgsubr
          159 vstem
          -98 callsubr
          40 270 rmoveto
          -95 88 -36 callsubr
          -270 95 vlineto
          63 1 20 76 hvcurveto
          208 vlineto
          60 -35 30 -63 vhcurveto
          -176 329 rmoveto
          -95 88 vlineto
          -94 callgsubr
          endchar
        </CharString>
        <CharString name="H">
          64 21 -21 335 95 293 34 callgsubr
          150 8 callsubr
          341 335 rmoveto
          95 -110 253 -94 callsubr
          -124 -666 hlineto
          -46 10 -11 45 vhcurveto
          105 335 hlineto
          150 388 rmoveto
          -683 vlineto
          -24 15 -16 21 vhcurveto
          124 666 hlineto
          -73 callsubr
          endchar
        </CharString>
        <CharString name="I">
          -23 callgsubr
          hstem
          71 8 callsubr
          -95 callgsubr
          endchar
        </CharString>
        <CharString name="IJ">
          12 -223 95 149 -21 723 -20 hstemhm
          64 160 -153 160 98 160 hintmask 11101100
          329 -73 callgsubr
          -946 10 callsubr
          832 vlineto
          -73 callsubr
          -336 -774 rmoveto
          -27 -7 -6 -25 hvcurveto
          -39 vlineto
          -76 56 -26 92 vhcurveto
          hintmask 11110100
          87 95 -48 -78 callsubr
          27 -23 callsubr
          hintmask 11101100
          27 51 -72 callsubr
        </CharString>
        <CharString name="Iacute">
          -23 callgsubr
          50 193 -29 callsubr
          hintmask 11010000
          -95 callgsubr
          hintmask 11110000
          57 753 -98 callgsubr
        </CharString>
        <CharString name="Icircumflex">
          -23 callgsubr
          60 173 -12 callgsubr
          vstem
          -95 callgsubr
          936 vmoveto
          -107 callgsubr
        </CharString>
        <CharString name="Idieresis">
          -23 callgsubr
          81 22 callgsubr
          -10 139 -58 160 -53 139 hintmask 11101000
          189 922 rmoveto
          -13 -2 2 -8 -12 -63 callsubr
          -4 -4 -43 callsubr
          10 -1 vhcurveto
          hintmask 11110100
          -101 callsubr
          -306 -106 callsubr
          hintmask 11101000
          113 -922 -72 callsubr
        </CharString>
        <CharString name="Igrave">
          -23 callgsubr
          50 193 -29 callsubr
          hintmask 11010000
          -95 callgsubr
          hintmask 11110000
          -102 946 -95 callsubr
        </CharString>
        <CharString name="J">
          -73 -27 callsubr
          hstem
          19 160 65 8 callsubr
          244 -73 callgsubr
          -723 10 callsubr
          609 vlineto
          -73 callsubr
          -316 -500 -30 callsubr
          47 95 -8 0 callgsubr
        </CharString>
        <CharString name="K">
          21 0 299 -278 -21 335 95 293 -20 -29 callsubr
          108 170 -167 160 hintmask 01111010
          71 -73 callgsubr
          -666 vlineto
          -46 10 -11 45 vhcurveto
          105 666 hlineto
          -73 callsubr
          hintmask 10111100
          163 -424 rmoveto
          -259 vlineto
          -24 15 -16 21 vhcurveto
          134 229 hlineto
          48 -15 22 -41 vhcurveto
          hintmask 01111010
          -111 424 rmoveto
          -264 -53 callgsubr
          -44 -95 123 hlineto
          94 14 49 70 hvcurveto
          212 vlineto
          46 -6 11 -39 vhcurveto
          endchar
        </CharString>
        <CharString name="L">
          10 0 95 628 34 callgsubr
          145 8 callsubr
          385 -77 callsubr
          -294 -218 -72 callsubr
        </CharString>
        <CharString name="Ldot">
          18 0 95 192 157 279 34 callgsubr
          145 8 callsubr
          385 -77 callsubr
          -121 226 -61 callgsubr
          -275 -444 -72 callsubr
        </CharString>
        <CharString name="Lslash">
          84 -27 callsubr
          hstemhm
          22 91 32 160 21 91 33 160 hintmask 11110100
          459 -77 callsubr
          -486 -19 rmoveto
          134 vlineto
          -91 -105 rlineto
          -128 vlineto
          395 9 callgsubr
          -21 -353 rmoveto
          723 vlineto
          hintmask 11111100
          -105 hlineto
          -99 callgsubr
          endchar
        </CharString>
        <CharString name="M">
          413 21 -21 628 95 -12 callgsubr
          173 160 168 8 callsubr
          594 11 callsubr
          111 -36 callsubr
          -599 10 callsubr
          -76 callgsubr
        </CharString>
        <CharString name="N">
          143 0 97 532 94 hstem
          72 140 268 140 vstem
          -87 callsubr
          endchar
        </CharString>
        <CharString name="NULL">
          -549 endchar
        </CharString>
        <CharString name="Ntilde">
          143 0 97 532 94 -39 callgsubr
          72 140 -13 60 193 60 -32 140 hintmask 11101001
          -87 callsubr
          hintmask 11101010
          286 312 -55 callsubr
          hintmask 11011010
          -71 callsubr
          hintmask 11100110
          -100 callsubr
        </CharString>
        <CharString name="O">
          92 -1 25 callsubr
          63 -14 callgsubr
          hintmask 01101100
          hintmask 01011100
          -98 callsubr
          hintmask 10101100
          -97 callgsubr
          endchar
        </CharString>
        <CharString name="OE">
          368 -1 17 callsubr
          -95 140 180 115 148 140 -96 95 hstemhm
          63 35 callgsubr
          172 39 -59 callsubr
          hintmask 0011101100000000
          283 722 rmoveto
          -95 74 vlineto
          37 4 -44 callgsubr
          vlineto
          hintmask 0101011100000000
          82 hlineto
          62 23 -4 93 2 hvcurveto
          4 215 -1 319 45 vvcurveto
          44 -20 11 -31 vhcurveto
          -276 1 20 callgsubr
          -70 -290 hvcurveto
          hintmask 1001011100000000
          -290 13 -73 155 vhcurveto
          127 95 -74 20 callsubr
          hintmask 0011101100100000
          635 16 29 callgsubr
          45 13 10 45 -1 hvcurveto
          hintmask 0011101101000000
          -10 668 rmoveto
          -80 callgsubr
          hintmask 0011101110000000
          -50 -203 -82 callgsubr
          endchar
        </CharString>
        <CharString name="Oacute">
          92 -1 -64 callsubr
          6 callgsubr
          63 180 41 72 42 180 hintmask 01100101
          hintmask 01010101
          -98 callsubr
          hintmask 10101111
          -97 callgsubr
          -54 31 -98 callgsubr
        </CharString>
        <CharString name="Ocircumflex">
          92 -1 -64 callsubr
          40 173 hstemhm
          63 -14 callgsubr
          hintmask 01101110
          hintmask 01011110
          -98 callsubr
          hintmask 10101110
          -97 callgsubr
          -111 214 rmoveto
          -107 callgsubr
        </CharString>
        <CharString name="Odieresis">
          92 -1 -64 callsubr
          61 22 callgsubr
          63 180 -107 -33 callgsubr
          -115 180 hintmask 0110110010000000
          hintmask 0101110010000000
          -98 callsubr
          hintmask 1010110010000000
          -97 callgsubr
          -25 200 rmoveto
          -13 -2 2 -8 -12 -63 callsubr
          -4 -4 -43 callsubr
          10 -1 vhcurveto
          117 hlineto
          hintmask 0110101100000000
          10 1 1 2 8 4 0 4 6 -2 callsubr
          12 2 8 -13 2 vhcurveto
          -356 -106 callsubr
          endchar
        </CharString>
        <CharString name="Ograve">
          92 -1 -64 callsubr
          6 callgsubr
          63 180 40 78 37 180 hintmask 01100111
          hintmask 01010111
          -98 callsubr
          hintmask 10101111
          -97 callgsubr
          -213 224 -95 callsubr
        </CharString>
        <CharString name="Oslash">
          92 -26 callgsubr
          25 callsubr
          64 180 40 74 41 14 hintmask 10110111
          358 390 rmoveto
          169 vlineto
          -346 -782 rlineto
          80 hlineto
          hintmask 11010111
          321 693 rmoveto
          195 423 rlineto
          -80 hlineto
          -128 -281 rlineto
          -135 vlineto
          -156 247 20 callgsubr
          -70 -290 -290 13 -73 155 hvcurveto
          127 95 -74 20 callsubr
          hintmask 10101111
          -97 callgsubr
          endchar
        </CharString>
        <CharString name="Otilde">
          92 -1 -64 callsubr
          -39 callgsubr
          63 180 -76 60 171 180 -158 60 hintmask 0110001010000000
          hintmask 0101001010000000
          -98 callsubr
          hintmask 1010001010000000
          -97 callgsubr
          hintmask 0110101001000000
          20 184 -55 callsubr
          hintmask 0110011001000000
          -71 callsubr
          hintmask 0110101010000000
          -172 27 rlineto
          -3 -3 0 -2 hhcurveto
          -35 -20 -23 -29 hvcurveto
          -62 vlineto
          0 0 -6 3 vhcurveto
          hintmask 0110100101000000
          53 hlineto
          2 2 0 8 hvcurveto
          4 vlineto
          11 5 4 8 vhcurveto
          1 2 0 2 hhcurveto
          172 -25 rlineto
          2 3 0 2 hhcurveto
          36 20 21 31 hvcurveto
          63 vlineto
          0 0 3 -3 vhcurveto
          endchar
        </CharString>
        <CharString name="P">
          40 21 -21 278 95 255 95 -46 callgsubr
          723 -51 callsubr
        </CharString>
        <CharString name="Q">
          92 -151 115 35 25 callsubr
          63 -14 callgsubr
          -179 201 hintmask 10110110
          hintmask 10101110
          -98 callsubr
          hintmask 11010110
          -97 callgsubr
          190 -758 rmoveto
          hintmask 10110101
          -201 -85 hlineto
          -14 4 -16 21 vhcurveto
          hintmask 10110110
          151 -40 callgsubr
        </CharString>
        <CharString name="R">
          70 0 300 -279 -21 331 95 202 95 -29 callsubr
          136 180 -161 180 hintmask 01111100
          231 hmoveto
          -38 callsubr
          10 -11 45 vhcurveto
          145 11 callsubr
          vlineto
          hintmask 01111010
          74 hlineto
          37 4 -3 callsubr
          -143 vlineto
          -18 callgsubr
          -74 -95 127 hlineto
          155 13 63 130 150 -13 49 -155 hvcurveto
          hintmask 10111100
          -31 -423 rmoveto
          -260 vlineto
          -24 15 -16 21 vhcurveto
          144 230 hlineto
          48 -15 22 -41 vhcurveto
          endchar
        </CharString>
        <CharString name="S">
          15 callgsubr
          -6 callsubr
          hintmask 11010101
          hintmask 11100101
          -71 callgsubr
          hintmask 11011010
          -79 callgsubr
          endchar
        </CharString>
        <CharString name="Scaron">
          15 callgsubr
          18 149 -6 callsubr
          hintmask 1101001010000000
          hintmask 1110001010000000
          -71 callgsubr
          hintmask 1101010100000000
          -79 callgsubr
          hintmask 1101101100000000
          76 -47 callsubr
        </CharString>
        <CharString name="T">
          62 21 -21 598 125 hstem
          214 160 40 189 vstem
          25 -44 callsubr
          15 callsubr
          endchar
        </CharString>
        <CharString name="Thorn">
          43 21 -21 149 95 255 95 129 -20 -46 callgsubr
          594 -51 callsubr
        </CharString>
        <CharString name="U">
          87 -27 callsubr
          hstem
          -9 callsubr
          vstem
          -101 callgsubr
          599 rmoveto
          -611 vlineto
          -86 56 -26 92 vhcurveto
          57 95 -18 -78 callsubr
          542 vlineto
          -73 callsubr
          endchar
        </CharString>
        <CharString name="Uacute">
          87 -27 callsubr
          50 1 callgsubr
          13 callsubr
          43 72 50 160 hintmask 11010100
          -101 callgsubr
          599 rmoveto
          -611 vlineto
          -86 56 -26 92 vhcurveto
          57 95 -18 -78 callsubr
          542 vlineto
          -73 callsubr
          hintmask 11111100
          -155 30 -98 callgsubr
        </CharString>
        <CharString name="Ucircumflex">
          87 -27 callsubr
          60 173 hstem
          -9 callsubr
          vstem
          -101 callgsubr
          599 rmoveto
          -611 vlineto
          -86 56 -26 92 vhcurveto
          57 95 -18 -78 callsubr
          542 vlineto
          -73 callsubr
          -212 213 rmoveto
          -107 callgsubr
        </CharString>
        <CharString name="Udieresis">
          87 -27 callsubr
          81 22 callgsubr
          13 callsubr
          -105 -33 callgsubr
          -107 160 hintmask 11110010
          -101 callgsubr
          599 rmoveto
          -611 vlineto
          -86 56 -26 92 vhcurveto
          57 95 -18 hlineto
          hintmask 11101010
          -83 callgsubr
          542 vlineto
          -73 callsubr
          -126 -62 callsubr
          hintmask 11110100
          7 callgsubr
          -10 callgsubr
          hintmask 11110010
          -100 callgsubr
        </CharString>
        <CharString name="Ugrave">
          87 -27 callsubr
          50 1 callgsubr
          13 callsubr
          48 72 45 160 hintmask 11010100
          -101 callgsubr
          599 rmoveto
          -611 vlineto
          -86 56 -26 92 vhcurveto
          57 95 -18 -78 callsubr
          542 vlineto
          -73 callsubr
          hintmask 11111100
          -314 223 -95 callsubr
        </CharString>
        <CharString name="V">
          63 -27 callsubr
          hstem
          30 563 vstem
          30 -73 callgsubr
          78 -571 rlineto
          -91 12 14 -61 122 hhcurveto
          44 hlineto
          1 95 -25 1 -16 3 -4 35 rlinecurve
          -66 532 rlineto
          46 -7 -12 11 -45 hhcurveto
          467 hmoveto
          -95 hlineto
          -45 -13 -11 -46 -6 hvcurveto
          -109 -666 rlineto
          62 hlineto
          82 10 51 81 14 hvcurveto
          endchar
        </CharString>
        <CharString name="W">
          -24 callsubr
          243 -20 hstem
          -9 callsubr
          175 161 vstem
          -101 callgsubr
          376 rmoveto
          -460 vlineto
          -24 15 -16 21 vhcurveto
          259 95 -108 hlineto
          -20 callgsubr
          124 vlineto
          -50 callsubr
          endchar
        </CharString>
        <CharString name="Wacute">
          -92 callsubr
          -343 -153 -98 callgsubr
        </CharString>
        <CharString name="Wcircumflex">
          -24 callsubr
          100 143 -143 173 hstemhm
          -9 callsubr
          175 161 hintmask 11101110
          230 -73 callgsubr
          -70 callsubr
          -554 vlineto
          -86 56 -26 92 vhcurveto
          22 callsubr
          hintmask 11011110
          95 -108 vlineto
          -83 callgsubr
          hintmask 11101110
          165 376 rmoveto
          -460 vlineto
          hintmask 11011110
          -24 15 -16 21 vhcurveto
          hintmask 11101110
          259 95 hlineto
          hintmask 11011110
          -108 hlineto
          2 callsubr
          hintmask 11101110
          -60 callgsubr
          124 vlineto
          -50 callsubr
          -400 30 rmoveto
          -107 callgsubr
        </CharString>
        <CharString name="Wdieresis">
          -24 callsubr
          121 122 -122 22 callgsubr
          13 callsubr
          42 139 -16 160 -45 139 81 161 hintmask 1110101010000000
          -101 callgsubr
          376 rmoveto
          -460 vlineto
          -24 15 -16 21 vhcurveto
          259 95 -108 hlineto
          hintmask 1101100110000000
          2 callsubr
          hintmask 1110100110000000
          -60 callgsubr
          124 vlineto
          21 16 16 24 hvcurveto
          626 vlineto
          hintmask 1101100110000000
          46 -10 11 -46 vhcurveto
          -314 16 rmoveto
          hintmask 1110101010000000
          -13 -2 2 -8 -12 -63 callsubr
          -4 -4 -43 callsubr
          10 -1 vhcurveto
          -101 callsubr
          hintmask 1101110010000000
          7 callgsubr
          -89 callsubr
          hintmask 1110110010000000
          -78 callgsubr
          -8 1 -2 9 -1 vhcurveto
          118 hlineto
          13 1 -2 4 20 vvcurveto
          hintmask 1101110010000000
          91 vlineto
          13 1 7 -12 2 vhcurveto
          endchar
        </CharString>
        <CharString name="Wgrave">
          -92 callsubr
          -502 40 -95 callsubr
        </CharString>
        <CharString name="X">
          81 0 270 44 95 46 269 hstemhm
          59 180 -164 180 106 180 -147 180 hintmask 11110010
          303 314 rmoveto
          95 -176 vlineto
          -53 -15 -25 -47 hvcurveto
          -300 vlineto
          -26 10 -11 35 vhcurveto
          135 285 hlineto
          18 2 11 26 vhcurveto
          hintmask 11110100
          274 -314 rmoveto
          270 3 callgsubr
          -156 vlineto
          -46 10 -11 45 vhcurveto
          hintmask 11101010
          -161 455 rmoveto
          269 3 callgsubr
          -155 vlineto
          -46 10 -11 45 vhcurveto
          264 268 rmoveto
          -285 -53 callgsubr
          -24 -95 193 hlineto
          35 3 20 28 hvcurveto
          7 0 7 8 vvcurveto
          282 vlineto
          46 -6 11 -39 vhcurveto
          endchar
        </CharString>
        <CharString name="Y">
          -68 callsubr
          16 callgsubr
          hintmask 01111001
          204 -73 callgsubr
          -105 hlineto
          -35 -20 -12 -35 hvcurveto
          -290 vlineto
          -47 15 -25 53 vhcurveto
          hintmask 01110101
          156 95 hlineto
          hintmask 01111010
          -36 hlineto
          -26 -2 -32 callsubr
          163 -438 rmoveto
          hintmask 10111010
          274 3 callgsubr
          -160 vlineto
          -46 10 -11 45 vhcurveto
          hintmask 01111001
          -67 callgsubr
          hintmask 01111010
          -24 -95 hlineto
          hintmask 01111001
          -72 callgsubr
          endchar
        </CharString>
        <CharString name="Yacute">
          -68 callsubr
          50 1 callgsubr
          44 160 -17 81 -28 72 -4 -91 callgsubr
          -152 30 -98 callgsubr
        </CharString>
        <CharString name="Ycircumflex">
          -68 callsubr
          60 173 16 callgsubr
          hintmask 0111110010000000
          hintmask 0111110100000000
          204 -73 callgsubr
          hintmask 1011110100000000
          -87 callgsubr
          hintmask 0111101010000000
          -125 -70 callgsubr
          hintmask 0111110010000000
          -160 vlineto
          -46 10 -11 45 vhcurveto
          -67 callgsubr
          hintmask 0111110100000000
          -24 -95 hlineto
          hintmask 0111110010000000
          -72 callgsubr
          -209 213 rmoveto
          -107 callgsubr
        </CharString>
        <CharString name="Ydieresis">
          -68 callsubr
          81 22 callgsubr
          44 160 -112 139 -44 81 40 59 -37 139 -110 160 hintmask 0111110000100000
          hintmask 0111110010000000
          204 -73 callgsubr
          hintmask 1011110010000000
          -87 callgsubr
          hintmask 0111100100100000
          -125 -70 callgsubr
          hintmask 0111110000100000
          -160 vlineto
          -46 10 -11 45 vhcurveto
          -67 callgsubr
          hintmask 0111110010000000
          -24 -95 hlineto
          hintmask 0111110000100000
          -72 callgsubr
          hintmask 0111101001000000
          -123 -106 callgsubr
        </CharString>
        <CharString name="Ygrave">
          -68 callsubr
          50 1 callgsubr
          44 160 -17 81 -23 72 -9 -91 callgsubr
          -311 223 -95 callsubr
        </CharString>
        <CharString name="Z">
          23 callgsubr
          hstem
          64 -14 callgsubr
          cntrmask 11100000
          -91 callsubr
          endchar
        </CharString>
        <CharString name="Zcaron">
          23 callgsubr
          18 149 hstemhm
          64 -14 callgsubr
          hintmask 11101100
          -91 callsubr
          hintmask 11111100
          -47 -47 callsubr
        </CharString>
        <CharString name="a">
          -14 callsubr
          -13 callsubr
          -39 callsubr
          -103 callgsubr
          endchar
        </CharString>
        <CharString name="aacute">
          -2 -46 callsubr
          33 62 30 150 hintmask 11010100
          hintmask 11011100
          -32 callgsubr
          -44 3 19 29 hvcurveto
          1 callsubr
          30 -2 18 43 vhcurveto
          hintmask 11010100
          -99 callsubr
          hintmask 11111100
          -61 30 -98 callgsubr
        </CharString>
        <CharString name="acircumflex">
          -14 callsubr
          40 173 -13 callsubr
          -39 callsubr
          -103 callgsubr
          -118 213 rmoveto
          -107 callgsubr
        </CharString>
        <CharString name="acute">
          -305 753 193 hstem
          40 72 vstem
          112 753 -98 callgsubr
        </CharString>
        <CharString name="adieresis">
          -14 callsubr
          61 138 -43 callgsubr
          -115 -33 callgsubr
          -137 150 hintmask 11110010
          -103 callgsubr
          hintmask 11101100
          -32 -106 callgsubr
        </CharString>
        <CharString name="ae">
          249 -36 callgsubr
          -13 callsubr
          154 116 -39 callsubr
          -32 callgsubr
          -44 3 19 29 hvcurveto
          1 callsubr
          30 -2 18 43 5 callsubr
          -240 vlineto
          -216 1 -44 151 vhcurveto
          2 393 hlineto
          53 -21 54 -92 vhcurveto
          379 -342 rmoveto
          -114 hlineto
          -105 callgsubr
          endchar
        </CharString>
        <CharString name="agrave">
          -2 -46 callsubr
          38 72 15 150 hintmask 11010100
          -103 callgsubr
          hintmask 11111100
          -220 223 -95 callsubr
        </CharString>
        <CharString name="ampersand">
          65 0 75 240 76 257 75 hstem
          59 150 75 150 71 90 vstem
          168 -73 callgsubr
          -33 -24 -8 -12 -17 hvcurveto
          -9 -7 rlineto
          -20 -20 -6 -29 -31 vvcurveto
          -155 vlineto
          2 -50 26 -42 63 -5 rrcurveto
          18 hlineto
          41 254 hlineto
          5 0 6 1 4 vhcurveto
          2 6 rlineto
          7 4 12 2 12 hhcurveto
          15 hlineto
          30 1 -3 callsubr
          -194 41 vlineto
          82 27 -18 callsubr
          85 vlineto
          63 -27 44 -82 vhcurveto
          96 -332 rmoveto
          -86 -53 -29 -90 hvcurveto
          -272 150 278 vlineto
          20 9 17 33 vhcurveto
          21 hlineto
          8 0 3 4 hvcurveto
          61 vlineto
          7 -6 1 0 vhcurveto
          -290 -51 rmoveto
          -41 hlineto
          -82 -27 -44 -63 hvcurveto
          -126 -93 callgsubr
          86 75 -4 hlineto
          -30 -11 -58 callgsubr
          316 68 rmoveto
          16 callsubr
          -48 vlineto
          -18 -1 -11 -15 vhcurveto
          -28 -75 56 hlineto
          59 19 26 86 hvcurveto
          40 vlineto
          6 0 15 -14 vhcurveto
          endchar
        </CharString>
        <CharString name="approxequal">
          136 43 206 24 206 hstemhm
          65 105 345 105 hintmask 01110000
          522 480 -96 callsubr
          hintmask 11110000
          -91 -230 -96 callsubr
          endchar
        </CharString>
        <CharString name="aring">
          -14 callsubr
          31 71 114 70 -43 callgsubr
          -55 71 109 150 -145 69 hintmask 11111010
          -103 callgsubr
          hintmask 11110101
          -93 286 -57 callgsubr
        </CharString>
        <CharString name="asciicircum">
          25 723 -20 hstem
          40 494 vstem
          534 244 rmoveto
          -246 479 -248 -479 rlineto
          99 hlineto
          149 288 147 -288 rlineto
          endchar
        </CharString>
        <CharString name="asciitilde">
          123 223 206 hstem
          60 105 345 105 vstem
          517 430 -96 callsubr
          endchar
        </CharString>
        <CharString name="asterisk">
          -105 574 149 hstem
          185 70 vstem
          255 574 rmoveto
          149 -39 vlineto
          -21 -10 -8 -24 hvcurveto
          -117 70 vlineto
          25 -66 138 51 -12 37 rlineto
          15 -5 -9 7 -11 hhcurveto
          -5 -5 -1 -2 -6 hvcurveto
          -180 -41 rmoveto
          -140 50 -13 -50 rlineto
          -2 6 -1 -5 -4 vvcurveto
          -11 7 -7 17 -6 vhcurveto
          109 -40 rlineto
          118 1 rmoveto
          -58 -39 83 -122 33 21 rlineto
          10 8 5 7 9 vvcurveto
          6 -2 7 -5 8 vhcurveto
          -125 57 rmoveto
          -59 37 -80 -123 32 -23 rlineto
          -4 7 6 -3 6 hhcurveto
          8 7 6 12 8 hvcurveto
          endchar
        </CharString>
        <CharString name="at">
          195 -159 61 98 63 264 64 96 63 hstem
          32 60 106 117 114 93 133 61 vstem
          384 550 rmoveto
          -211 -141 -138 -222 -214 135 -135 217 79 70 20 36 52 hvcurveto
          -26 56 rlineto
          -32 -50 -59 -19 -64 hhcurveto
          -178 -116 115 177 182 118 111 176 155 114 -94 -170 -102 -44 -58 -51 -23 -15 12 17 hvcurveto
          215 vlineto
          41 -13 43 -73 vhcurveto
          -7 -294 hlineto
          -64 57 -33 60 96 74 82 137 211 -139 120 -193 vhcurveto
          20 -223 rmoveto
          64 -85 vlineto
          -118 -3 -37 -161 -162 7 -31 114 hvcurveto
          85 63 -58 hlineto
          -34 3 30 23 hvcurveto
          158 vlineto
          25 -2 28 33 vhcurveto
          endchar
        </CharString>
        <CharString name="atilde">
          -14 callsubr
          -39 callgsubr
          51 155 -84 60 149 150 -106 60 hintmask 11001010
          hintmask 11000110
          29 callsubr
          hintmask 11001010
          -148 -5 -44 -209 -206 8 -41 145 hvcurveto
          97 -28 callgsubr
          -44 3 19 29 hvcurveto
          1 callsubr
          30 -2 18 43 vhcurveto
          -99 callsubr
          hintmask 11101001
          13 183 -55 callsubr
          hintmask 11011001
          -71 callsubr
          hintmask 11100101
          -100 callsubr
        </CharString>
        <CharString name="b">
          -11 -69 callsubr
          223 -20 hstem
          57 9 callsubr
          207 hmoveto
          -11 callsubr
          91 500 rmoveto
          -75 54 -35 callsubr
          -291 vlineto
          25 callgsubr
          -84 callgsubr
          endchar
        </CharString>
        <CharString name="backslash">
          -107 723 -20 hstem
          17 406 vstem
          423 -140 rmoveto
          -326 863 rlineto
          -80 hlineto
          326 -863 rlineto
          endchar
        </CharString>
        <CharString name="bar">
          -323 -142 916 hstem
          73 80 vstem
          153 -142 rmoveto
          916 -80 -916 vlineto
          endchar
        </CharString>
        <CharString name="braceleft">
          2 callgsubr
          82 120 26 100 hintmask 10111000
          202 -73 callgsubr
          -31 hlineto
          -64 -25 -31 -76 hvcurveto
          -240 vlineto
          -20 1 -18 -33 vhcurveto
          -5 hlineto
          -8 0 -3 -4 hvcurveto
          -51 vlineto
          -7 6 0 0 vhcurveto
          70 hlineto
          56 33 41 70 hvcurveto
          hintmask 10111100
          26 -490 rmoveto
          -96 100 42 vlineto
          32 -22 22 -33 vhcurveto
          -230 353 rmoveto
          0 -6 0 -7 vvcurveto
          -51 vlineto
          -4 0 -3 8 vhcurveto
          5 hlineto
          hintmask 11111000
          33 -1 -18 -20 hvcurveto
          -240 vlineto
          -76 25 -31 64 vhcurveto
          31 339 hlineto
          70 -33 41 -56 vhcurveto
          215 476 rmoveto
          -4 callsubr
          endchar
        </CharString>
        <CharString name="braceright">
          2 callgsubr
          19 100 26 120 hintmask 10110100
          145 -73 callgsubr
          -339 vlineto
          -70 33 -41 56 vhcurveto
          70 -17 callsubr
          0 7 vvcurveto
          51 vlineto
          4 0 3 -8 vhcurveto
          -5 -77 callgsubr
          240 vlineto
          76 -25 31 -64 vhcurveto
          hintmask 10111100
          -57 -925 rmoveto
          96 -45 vlineto
          -33 -22 -22 -32 hvcurveto
          -42 vlineto
          215 449 rmoveto
          -56 -33 -41 -70 hvcurveto
          -339 31 vlineto
          64 25 31 76 hvcurveto
          hintmask 11110100
          240 vlineto
          20 -1 18 33 vhcurveto
          5 hlineto
          8 0 3 4 hvcurveto
          51 vlineto
          7 -6 0 0 vhcurveto
          -185 380 rmoveto
          96 -100 -42 vlineto
          -32 22 -22 33 vhcurveto
          endchar
        </CharString>
        <CharString name="bracketleft">
          24 callsubr
          72 120 31 140 vstem
          192 -134 rmoveto
          977 -65 vlineto
          -54 -1 -1 -53 hvcurveto
          -869 vlineto
          -53 1 -1 54 vhcurveto
          236 96 rmoveto
          -140 -96 85 hlineto
          33 callsubr
          -140 923 rmoveto
          -96 140 42 vlineto
          53 -1 1 -54 vhcurveto
          endchar
        </CharString>
        <CharString name="bracketright">
          24 callsubr
          20 140 31 120 vstem
          191 843 rmoveto
          -977 65 vlineto
          33 callsubr
          869 vlineto
          53 -1 1 -54 vhcurveto
          -96 -977 rmoveto
          96 -140 -42 vlineto
          -53 1 -1 54 vhcurveto
          85 881 rmoveto
          96 -85 vlineto
          -54 -1 -1 -53 hvcurveto
          -42 vlineto
          endchar
        </CharString>
        <CharString name="breve">
          -215 754 71 hstem
          40 71 114 69 vstem
          225 891 rmoveto
          -29 -1 -16 -37 -40 hhcurveto
          -42 -15 35 31 hvcurveto
          -71 hlineto
          -70 37 -67 91 89 36 69 68 1 vhcurveto
          endchar
        </CharString>
        <CharString name="brokenbar">
          -325 -202 -21 hstem
          72 80 vstem
          152 351 rmoveto
          423 -80 -423 vlineto
          80 -574 rmoveto
          423 -80 -423 vlineto
          endchar
        </CharString>
        <CharString name="bullet">
          -230 221 153 hstem
          84 152 vstem
          111 374 rmoveto
          -104 callsubr
          endchar
        </CharString>
        <CharString name="c">
          -34 -69 callsubr
          -42 callgsubr
          118 27 callgsubr
          -53 vlineto
          -66 callsubr
          126 hlineto
          82 27 -18 callsubr
          30 vlineto
          24 -10 -3 -26 vhcurveto
          -199 342 rmoveto
          -75 54 vlineto
          30 1 -3 callsubr
          -15 callgsubr
        </CharString>
        <CharString name="caron">
          -101 743 163 hstem
          40 368 vstem
          408 906 -74 callsubr
        </CharString>
        <CharString name="ccedilla">
          -34 -183 103 80 33 -33 -53 callsubr
          -43 callgsubr
          59 75 -18 150 hintmask 11011100
          -90 callgsubr
          118 27 callgsubr
          -53 vlineto
          -66 callsubr
          126 hlineto
          82 27 -18 callsubr
          30 vlineto
          24 -10 -3 -26 vhcurveto
          hintmask 10111010
          -199 342 rmoveto
          -75 54 vlineto
          hintmask 10111100
          30 1 -3 callsubr
          hintmask 11011100
          -49 vlineto
          -24 10 3 26 vhcurveto
          hintmask 11011010
          114 hlineto
          hintmask 10111010
          68 vlineto
          63 -27 44 -82 vhcurveto
          -23 -467 rmoveto
          -75 -84 hlineto
          33 callgsubr
          -15 callsubr
          -10 callsubr
        </CharString>
        <CharString name="cedilla">
          -313 -183 103 hstem
          221 75 vstem
          296 33 rmoveto
          -75 -84 hlineto
          33 callgsubr
          -15 callsubr
          -10 callsubr
        </CharString>
        <CharString name="cent">
          -69 -202 -21 298 -25 callgsubr
          76 hstemhm
          30 155 31 80 5 150 hintmask 11111000
          185 75 rmoveto
          500 -2 vlineto
          -145 -8 -41 -206 -209 5 -44 148 hvcurveto
          hintmask 11110100
          118 27 callgsubr
          -53 28 callsubr
          -54 -373 80 298 46 hlineto
          hintmask 11110100
          82 27 -18 callsubr
          30 vlineto
          24 -10 -3 -26 vhcurveto
          hintmask 11111000
          -119 343 rmoveto
          256 -80 -332 vlineto
          hintmask 11110100
          67 hlineto
          17 -3 1 -11 -15 vvcurveto
          -15 callgsubr
        </CharString>
        <CharString name="circumflex">
          -141 763 173 hstem
          40 337 vstem
          184 936 rmoveto
          -107 callgsubr
        </CharString>
        <CharString name="colon">
          -280 0 153 195 153 hstem
          59 152 vstem
          86 501 rmoveto
          -104 callsubr
          -100 -348 rmoveto
          -104 callsubr
          endchar
        </CharString>
        <CharString name="comma">
          -265 -2 153 hstem
          53 179 vstem
          80 -88 callsubr
          endchar
        </CharString>
        <CharString name="copyright">
          291 -52 67 123 62 287 62 112 67 hstem
          30 68 147 127 96 123 152 68 vstem
          423 728 -49 callsubr
          -51 -590 rmoveto
          411 -2 vlineto
          -121 -4 -33 -171 -170 3 -37 122 hvcurveto
          98 129 rmoveto
          -43 vlineto
          -14 -1 -10 -26 vhcurveto
          -43 -62 103 hlineto
          68 22 36 53 hvcurveto
          24 vlineto
          14 -5 2 -10 vhcurveto
          -4 -5 0 -6 hhcurveto
          -139 394 -49 callgsubr
          -24 -112 rmoveto
          -62 43 vlineto
          26 1 -8 -17 hvcurveto
          -41 vlineto
          -16 5 -1 11 vhcurveto
          4 4 0 5 hhcurveto
          94 57 hlineto
          52 -22 36 -68 vhcurveto
          endchar
        </CharString>
        <CharString name="currency">
          118 102 74 324 73 hstem
          97 73 325 70 vstem
          91 661 rmoveto
          -56 -57 115 -116 rlineto
          -33 -41 -20 -52 -56 vvcurveto
          -56 20 -52 32 -41 vhcurveto
          -114 -115 56 -57 118 118 rlineto
          -22 35 41 -12 45 hhcurveto
          46 44 14 23 36 hvcurveto
          121 -121 56 57 -118 119 rlineto
          31 40 19 51 54 vvcurveto
          55 -19 50 -32 40 vhcurveto
          119 120 -56 57 -123 -124 rlineto
          23 -36 -43 13 -45 hhcurveto
          -44 -40 -12 -21 -35 hvcurveto
          119 -40 rmoveto
          92 73 -71 -90 -91 -73 -72 -92 -88 -72 72 91 90 72 71 88 hvcurveto
          endchar
        </CharString>
        <CharString name="d">
          -11 -69 callsubr
          223 -20 -13 callsubr
          -39 callsubr
          301 425 -65 callsubr
          84 298 rmoveto
          -17 callgsubr
        </CharString>
        <CharString name="dagger">
          -68 384 98 -98 106 233 -20 hstemhm
          181 120 hintmask 10110000
          181 482 rmoveto
          -159 -49 hlineto
          -38 callgsubr
          -483 vlineto
          -46 10 -11 45 vhcurveto
          65 hlineto
          hintmask 01110000
          540 -48 callgsubr
          193 -94 callsubr
          -84 hlineto
          endchar
        </CharString>
        <CharString name="daggerdbl">
          -44 109 98 -98 106 169 98 -98 106 233 -20 hstemhm
          193 120 hintmask 10101100
          193 482 rmoveto
          -159 -49 hlineto
          -38 callgsubr
          -193 -159 -49 vlineto
          -38 callgsubr
          -208 vlineto
          -46 10 -11 45 vhcurveto
          65 hlineto
          hintmask 01011100
          265 -48 callgsubr
          185 -48 callgsubr
          193 -94 callsubr
          -84 hlineto
          endchar
        </CharString>
        <CharString name="degree">
          -181 450 67 172 67 hstem
          33 65 172 65 vstem
          176 756 rmoveto
          -75 -68 -66 -88 -81 68 -71 75 93 66 71 81 88 -66 66 -93 hvcurveto
          1 -67 rmoveto
          55 38 -37 -50 -49 -38 -36 -55 -40 -39 36 49 50 39 37 40 hvcurveto
          endchar
        </CharString>
        <CharString name="dieresis">
          -92 784 138 hstem
          40 -33 callgsubr
          vstem
          289 922 -104 callgsubr
          -10 callgsubr
          -100 callgsubr
        </CharString>
        <CharString name="divide">
          86 31 139 37 100 40 139 hstem
          231 138 vstem
          597 207 -48 callsubr
          217 279 rmoveto
          -5 -16 callsubr
          hhcurveto
          -9 -1 0 -10 -1 hvcurveto
          -118 -1 callgsubr
          -1 12 2 hvcurveto
          118 vlineto
          12 -2 -7 -2 -14 hhcurveto
          -91 -316 rmoveto
          -5 -16 callsubr
          hhcurveto
          -9 -1 -1 -10 -1 hvcurveto
          -117 -1 callgsubr
          -2 13 2 hvcurveto
          117 vlineto
          13 -2 -7 -2 -14 hhcurveto
          endchar
        </CharString>
        <CharString name="dollar">
          42 -26 callgsubr
          95 216 95 222 95 hstemhm
          38 180 -176 160 56 80 35 160 -156 179 hintmask 1111101010000000
          218 723 rmoveto
          -12 hlineto
          4 callgsubr
          -150 13 -69 155 hvcurveto
          127 95 -74 hlineto
          -37 -4 -58 callgsubr
          -162 -213 -30 callsubr
          68 hlineto
          hintmask 1111011100000000
          -223 80 403 -80 -85 -29 vlineto
          -83 callgsubr
          78 -23 callsubr
          156 688 rmoveto
          -80 -413 80 130 8 hlineto
          -94 callgsubr
          -47 hlineto
          39 -318 rmoveto
          1 -405 rlineto
          11 hlineto
          155 13 13 200 180 -13 12 -155 hvcurveto
          endchar
        </CharString>
        <CharString name="dotaccent">
          -334 764 138 hstem
          36 139 vstem
          47 902 -107 callsubr
          endchar
        </CharString>
        <CharString name="dotlessi">
          -26 callsubr
          hstem
          58 -39 callsubr
          58 499 -21 callsubr
        </CharString>
        <CharString name="e">
          26 callgsubr
          -42 callgsubr
          268 158 rmoveto
          -114 hlineto
          -105 callgsubr
          endchar
        </CharString>
        <CharString name="eacute">
          -5 callgsubr
          16 72 28 150 hintmask 11101010
          -90 callgsubr
          268 158 rmoveto
          -114 hlineto
          -105 callgsubr
          hintmask 11111110
          -59 30 -98 callgsubr
        </CharString>
        <CharString name="ecircumflex">
          26 callgsubr
          40 173 -42 callgsubr
          268 158 rmoveto
          -114 hlineto
          -105 callgsubr
          -116 213 rmoveto
          -107 callgsubr
        </CharString>
        <CharString name="edieresis">
          26 callgsubr
          61 138 -43 callgsubr
          -132 -33 callgsubr
          -129 150 hintmask 11111001
          -90 callgsubr
          268 158 rmoveto
          -114 hlineto
          -105 callgsubr
          hintmask 11110110
          -30 -106 callgsubr
        </CharString>
        <CharString name="egrave">
          -5 callgsubr
          31 62 23 150 hintmask 11101100
          -90 callgsubr
          268 27 callgsubr
          -16 callgsubr
          hintmask 11101110
          -105 callgsubr
          hintmask 11111100
          -218 223 -95 callsubr
        </CharString>
        <CharString name="eight">
          48 0 95 260 25 248 95 hstemhm
          60 180 -179 160 155 160 hintmask 11101100
          316 380 rmoveto
          -95 33 -36 callsubr
          -256 75 vlineto
          55 30 31 66 hvcurveto
          193 vlineto
          40 -15 50 -73 vhcurveto
          -208 -85 rmoveto
          -110 hlineto
          -61 -9 -33 -40 hvcurveto
          -115 vlineto
          -63 7 -44 82 vhcurveto
          187 95 -65 hlineto
          -31 0 -58 callgsubr
          hintmask 11110100
          -19 598 rmoveto
          -65 hlineto
          -65 -30 -21 -76 hvcurveto
          -181 vlineto
          -60 35 -30 63 vhcurveto
          121 95 -32 -78 callsubr
          40 244 rmoveto
          -95 84 vlineto
          30 1 -3 callsubr
          -168 98 vlineto
          38 24 15 34 hvcurveto
          142 vlineto
          62 -13 40 -81 vhcurveto
          endchar
        </CharString>
        <CharString name="ellipsis">
          226 0 153 hstem
          53 152 100 152 114 152 vstem
          598 -65 callgsubr
          -618 hmoveto
          -104 callsubr
          152 hmoveto
          -104 callsubr
          endchar
        </CharString>
        <CharString name="emdash">
          86 293 110 hstem
          56 523 vstem
          579 293 rmoveto
          110 -523 -110 vlineto
          endchar
        </CharString>
        <CharString name="emptyset">
          105 0 71 442 71 hstem
          36 71 441 71 vstem
          327 584 rmoveto
          -161 -130 -131 -161 -161 130 -131 161 160 132 131 161 161 -132 131 -160 hvcurveto
          -71 vmoveto
          124 97 -98 -123 -122 -97 -99 -124 -120 -100 99 122 123 100 98 120 hvcurveto
          endchar
        </CharString>
        <CharString name="endash">
          -36 293 110 hstem
          56 401 vstem
          457 293 rmoveto
          110 -401 -110 vlineto
          endchar
        </CharString>
        <CharString name="equal">
          136 209 100 90 30 callsubr
          399 -48 callsubr
          559 -190 -48 callsubr
          endchar
        </CharString>
        <CharString name="eth">
          11 -69 callsubr
          147 76 hstem
          51 155 123 -39 callsubr
          555 -52 callgsubr
          -76 92 hlineto
          100 -45 31 -94 vhcurveto
          -96 hlineto
          0 -6 -1 -7 vvcurveto
          -61 vlineto
          -4 0 -3 8 vhcurveto
          41 hlineto
          33 9 -17 -20 hvcurveto
          -610 61 vlineto
          62 27 35 43 hvcurveto
          345 51 vlineto
          21 4 16 14 hvcurveto
          -254 -28 -65 callsubr
          endchar
        </CharString>
        <CharString name="exclam">
          -242 -2 153 573 -20 hstemhm
          73 160 -155 152 hintmask 11100000
          233 260 rmoveto
          464 -116 vlineto
          -44 19 callgsubr
          45 vhcurveto
          hintmask 11010000
          -13 -109 rmoveto
          -104 callsubr
          endchar
        </CharString>
        <CharString name="exclamdown">
          -258 345 153 hstemhm
          65 160 -155 152 hintmask 11000000
          110 236 rmoveto
          -45 19 callgsubr
          44 vhcurveto
          116 464 hlineto
          hintmask 10100000
          -28 109 rmoveto
          15 8 -2 14 2 hvcurveto
          129 vlineto
          14 -2 -8 -2 -15 hhcurveto
          -100 hlineto
          -6 -16 callsubr
          hhcurveto
          -10 -2 -1 -11 -1 hvcurveto
          -129 vlineto
          -11 1 2 -1 10 3 5 0 6 hhcurveto
          endchar
        </CharString>
        <CharString name="f">
          -202 21 -21 423 77 147 10 callgsubr
          hintmask 11110000
          231 -73 callgsubr
          17 callgsubr
          -92 -76 -8 callsubr
          -76 callsubr
          hintmask 11111000
          7 -223 rmoveto
          -70 -77 45 -40 callgsubr
        </CharString>
        <CharString name="fi">
          21 21 -21 423 76 -76 77 80 143 -76 10 callgsubr
          25 150 -146 150 hintmask 1010110010000000
          hintmask 1100110010000000
          363 499 -93 callsubr
          hintmask 1010111010000000
          -21 callgsubr
          hintmask 1010110100000000
          -203 hmoveto
          17 callgsubr
          hintmask 1011010100000000
          -92 -76 vlineto
          hintmask 1010110100000000
          -8 callsubr
          hintmask 1010110010000000
          -76 callsubr
          7 -223 rmoveto
          -70 -77 45 -40 callgsubr
        </CharString>
        <CharString name="five">
          63 0 95 246 94 173 115 hstemhm
          54 160 -145 159 42 284 -162 159 hintmask 11101010
          323 436 rmoveto
          -95 42 -36 callsubr
          -2 -312 75 -1 rlineto
          54 -1 32 32 66 vvcurveto
          1 249 rlineto
          40 -14 49 -73 1 vhcurveto
          -251 -199 -5 callsubr
          207 95 -105 hlineto
          -30 -2 11 19 1 hvcurveto
          hintmask 11110100
          16 598 rmoveto
          -65 hlineto
          -65 -31 2 -76 hvcurveto
          -1 -236 rlineto
          -60 24 -11 43 vhcurveto
          147 -1 rlineto
          95 -27 vlineto
          -26 -1 13 17 hvcurveto
          326 257 rmoveto
          -284 -116 hlineto
          259 1 rlineto
          21 4 14 14 hvcurveto
          endchar
        </CharString>
        <CharString name="fl">
          37 0 75 348 77 147 10 callgsubr
          26 150 hintmask 11110100
          360 -73 callgsubr
          -612 -86 callgsubr
          35 -62 vhcurveto
          -190 hmoveto
          17 callgsubr
          -92 -76 -8 callsubr
          -76 callsubr
          hintmask 11111100
          7 -223 rmoveto
          -70 -77 45 -40 callgsubr
        </CharString>
        <CharString name="florin">
          -84 399 100 128 96 hstem
          349 100 vstem
          437 399 rmoveto
          100 -139 vlineto
          17 168 12 52 12 4 rrcurveto
          -74 hlineto
          -56 -47 -43 -69 -7 hvcurveto
          -11 -112 rlineto
          -116 -100 106 hlineto
          -44 -450 -5 -52 -17 18 callgsubr
          37 393 rlineto
          160 324 rmoveto
          -4 callsubr
          endchar
        </CharString>
        <CharString name="four">
          36 21 -21 299 95 329 -20 hstem
          41 150 125 8 callsubr
          316 -19 callsubr
          124 299 86 77 hlineto
          14 -4 4 -21 vhcurveto
          -61 272 hlineto
          -73 callsubr
          -230 hmoveto
          -65 hlineto
          -65 -20 -1 -76 hvcurveto
          -277 vlineto
          -60 15 -10 53 vhcurveto
          167 95 -48 hlineto
          -34 -3 -32 callsubr
          endchar
        </CharString>
        <CharString name="four.dnom">
          -281 560 37 -37 163 hstemhm
          35 58 46 60 hintmask 01110000
          139 723 -24 callgsubr
          34 hlineto
          hintmask 10110000
          29 vlineto
          6 -4 2 -7 vhcurveto
          -23 hlineto
          hintmask 01110000
          103 vlineto
          -61 callsubr
          hlineto
          hintmask 10110000
          37 -14 vlineto
          -15 0 3 7 hvcurveto
          endchar
        </CharString>
        <CharString name="fraction">
          -102 21 -21 723 -20 hstem
          -12 472 vstem
          58 hmoveto
          -50 callgsubr
        </CharString>
        <CharString name="g">
          -52 callsubr
          350 75 -43 callgsubr
          -140 150 12 callgsubr
          hintmask 01111010
          -32 callgsubr
          -37 -4 11 18 hvcurveto
          6 0 6 7 vvcurveto
          1 callsubr
          7 0 6 5 vvcurveto
          19 35 callsubr
          hintmask 01110110
          -31 -489 -27 callgsubr
          -30 -93 callgsubr
          126 75 -54 -66 callgsubr
          115 617 rmoveto
          hintmask 10111010
          -17 callgsubr
        </CharString>
        <CharString name="germandbls">
          -23 -26 callgsubr
          75 340 75 157 76 -76 77 hstemhm
          83 150 95 150 -148 151 hintmask 11110110
          222 -73 callgsubr
          17 callgsubr
          -515 -51 vlineto
          -21 -4 -16 -14 hvcurveto
          -47 76 -223 61 vlineto
          62 27 35 43 hvcurveto
          755 vlineto
          20 9 17 33 vhcurveto
          21 hlineto
          8 0 3 4 hvcurveto
          61 vlineto
          7 -6 1 0 vhcurveto
          30 -323 rmoveto
          -295 vlineto
          -75 callgsubr
          -34 -75 106 hlineto
          82 27 -18 callsubr
          186 vlineto
          63 -27 44 -82 vhcurveto
          hintmask 11101101
          -39 324 rmoveto
          -204 vlineto
          -75 callgsubr
          -34 -75 106 hlineto
          82 28 -18 callsubr
          105 vlineto
          58 -35 39 -75 vhcurveto
          endchar
        </CharString>
        <CharString name="grave">
          -305 753 193 hstem
          132 72 vstem
          40 946 -95 callsubr
        </CharString>
        <CharString name="greater">
          88 21 -21 hstem
          53 559 vstem
          612 350 -31 callgsubr
          endchar
        </CharString>
        <CharString name="greaterequal">
          104 -36 100 hstem
          52 559 vstem
          611 450 -31 callgsubr
          -386 31 callsubr
        </CharString>
        <CharString name="guillemotleft">
          -5 -26 callsubr
          hstem
          16 491 -28 callsubr
          332 203 rmoveto
          -72 52 -185 -255 175 -266 72 52 -98 214 rlineto
          endchar
        </CharString>
        <CharString name="guillemotright">
          -5 -26 callsubr
          hstem
          37 491 vstem
          528 -20 callsubr
          -9 296 rmoveto
          -185 255 -72 -52 108 -203 -98 -214 72 -52 rlineto
          endchar
        </CharString>
        <CharString name="guilsinglleft">
          -195 499 -20 hstem
          16 307 -28 callsubr
          endchar
        </CharString>
        <CharString name="guilsinglright">
          -195 499 -20 hstem
          31 307 vstem
          338 -20 callsubr
          endchar
        </CharString>
        <CharString name="h">
          -11 4 callsubr
          223 -20 hstem
          58 -8 callgsubr
          233 -22 callsubr
          58 -85 callsubr
          -315 223 rmoveto
          -683 -90 callsubr
          646 -51 callgsubr
          endchar
        </CharString>
        <CharString name="hungarumlaut">
          -78 758 145 hstem
          60 381 vstem
          277 758 rmoveto
          164 145 rlineto
          -122 hlineto
          -132 -145 rlineto
          -37 hmoveto
          134 145 rlineto
          -122 hlineto
          -102 -145 rlineto
          endchar
        </CharString>
        <CharString name="hyphen">
          -31 callsubr
        </CharString>
        <CharString name="i">
          -26 callsubr
          101 143 hstemhm
          54 150 -146 150 hintmask 11101000
          58 499 -93 callsubr
          hintmask 11110000
          -21 callgsubr
          endchar
        </CharString>
        <CharString name="iacute">
          -26 callsubr
          51 193 hstem
          58 -39 callsubr
          58 499 -93 callsubr
          11 31 -98 callgsubr
        </CharString>
        <CharString name="icircumflex">
          -26 callsubr
          61 173 hstem
          58 -39 callsubr
          58 499 -93 callsubr
          -46 214 rmoveto
          -107 callgsubr
        </CharString>
        <CharString name="idieresis">
          -26 callsubr
          116 126 hstemhm
          -23 127 -46 150 -61 127 hintmask 11101000
          hintmask 11110100
          157 721 rmoveto
          -9 -2 -1 -3 -7 -2 0 -3 -3 vvcurveto
          -83 vlineto
          -4 0 -4 -3 vvcurveto
          -9 1 -2 9 -1 vhcurveto
          107 hlineto
          12 1 -2 4 18 24 callgsubr
          -278 hmoveto
          -8 -2 -1 -3 -7 -2 0 -3 -3 vvcurveto
          -83 vlineto
          -16 callsubr
          -3 vvcurveto
          -9 1 -2 8 -1 vhcurveto
          108 hlineto
          11 1 -1 5 17 24 callgsubr
          hintmask 11101000
          -36 -222 -21 callsubr
        </CharString>
        <CharString name="igrave">
          -26 callsubr
          51 193 hstem
          58 -39 callsubr
          28 -73 callgsubr
          92 -193 rlineto
          72 -6 callgsubr
          59 3 -2 -51 vhcurveto
          -86 -224 -21 callsubr
        </CharString>
        <CharString name="ij">
          -19 -222 75 168 -21 499 -20 101 143 hstemhm
          54 150 -146 150 12 callgsubr
          hintmask 11110110
          58 499 -93 callsubr
          hintmask 11111010
          -21 callgsubr
          194 -224 -74 callgsubr
        </CharString>
        <CharString name="infinity">
          152 142 136 -135 121 115 121 hstemhm
          58 72 185 70 185 72 cntrmask 00011100
          hintmask 01111100
          382 499 rmoveto
          -30 -37 -11 -54 hvcurveto
          -100 70 vlineto
          1 25 rlineto
          20 1 5 0 15 hhcurveto
          235 1 rlineto
          57 vlineto
          41 -23 22 -51 vhcurveto
          -183 -194 rmoveto
          -70 -23 hlineto
          -18 -9 -1 -13 vhcurveto
          -234 -1 rlineto
          -48 vlineto
          -49 14 -23 58 vhcurveto
          186 hlineto
          47 21 27 46 hvcurveto
          -248 284 rmoveto
          -48 -31 -11 -59 hvcurveto
          -136 72 63 vlineto
          22 8 0 15 1 vhcurveto
          126 74 hlineto
          28 -12 18 -25 vhcurveto
          hintmask 10111100
          399 -150 rmoveto
          -71 -49 hlineto
          -22 -8 -1 -14 vhcurveto
          -127 -83 hlineto
          -45 24 -8 32 vhcurveto
          84 hlineto
          48 33 5 61 hvcurveto
          endchar
        </CharString>
        <CharString name="integral">
          -62 -101 101 627 96 hstem
          2 95 292 100 vstem
          305 -73 callgsubr
          -56 -3 -47 -40 -7 -69 -64 -647 -4 -67 -19 18 callgsubr
          45 475 17 183 12 55 13 4 rlinecurve
          110 hmoveto
          -4 callsubr
          -391 -782 rmoveto
          101 -95 vlineto
          -1 -45 rlineto
          -34 1 21 -22 33 hhcurveto
          endchar
        </CharString>
        <CharString name="j">
          -222 75 646 -20 101 143 hstem
          58 -39 callsubr
          58 499 -74 callgsubr
        </CharString>
        <CharString name="k">
          -23 0 227 28 75 170 -20 243 -20 hstemhm
          58 150 110 150 -140 150 hintmask 10111010
          58 -73 callgsubr
          -683 -90 callsubr
          646 -51 callgsubr
          209 -496 rmoveto
          -187 -90 callsubr
          187 hlineto
          24 -15 16 -21 vhcurveto
          hintmask 11111100
          26 273 -34 callsubr
          -17 -24 hvcurveto
          -99 vlineto
          -66 callsubr
          126 hlineto
          82 27 -18 callsubr
          endchar
        </CharString>
        <CharString name="l">
          -267 0 75 647 -20 hstem
          56 -39 callsubr
          56 722 rmoveto
          -611 -86 callgsubr
          34 -62 vhcurveto
          endchar
        </CharString>
        <CharString name="ldot">
          -124 0 75 210 138 299 -20 hstem
          56 150 66 146 vstem
          346 423 rmoveto
          -68 -6 -4 -64 -65 6 -5 68 68 4 5 65 64 -4 4 -68 hvcurveto
          -290 299 rmoveto
          -611 -86 callgsubr
          34 -62 vhcurveto
          endchar
        </CharString>
        <CharString name="less">
          88 21 -21 hstem
          25 559 vstem
          584 -52 callgsubr
          100 vlineto
          -559 -250 rlineto
          -100 vlineto
          559 -250 rlineto
          100 vlineto
          -447 200 rlineto
          endchar
        </CharString>
        <CharString name="lessequal">
          104 -36 100 hstem
          42 559 vstem
          601 600 rmoveto
          100 vlineto
          -559 -250 rlineto
          -100 vlineto
          559 -250 rlineto
          100 vlineto
          -447 200 rlineto
          447 -436 -48 callsubr
          endchar
        </CharString>
        <CharString name="logicalnot">
          105 345 95 hstem
          504 85 vstem
          589 160 rmoveto
          280 -549 -95 464 -185 vlineto
          endchar
        </CharString>
        <CharString name="lozenge">
          91 21 -21 hstem
          20 600 vstem
          620 300 rmoveto
          -300 300 -300 -300 300 -300 rlineto
          -185 298 rmoveto
          186 184 182 -182 -182 -186 rlineto
          endchar
        </CharString>
        <CharString name="lslash">
          -135 0 75 648 -20 hstemhm
          24 91 25 150 28 91 hintmask 11010000
          140 -73 callgsubr
          -612 -86 callgsubr
          35 -62 vhcurveto
          hintmask 11111000
          -86 -524 rmoveto
          134 vlineto
          -91 -105 rlineto
          -128 vlineto
          385 9 callgsubr
          endchar
        </CharString>
        <CharString name="m">
          256 4 callsubr
          hstem
          58 150 120 150 121 -39 callsubr
          504 500 rmoveto
          -75 54 -85 callsubr
          -582 hmoveto
          -460 -90 callsubr
          423 -51 callgsubr
          114 hmoveto
          -75 54 -85 callsubr
          endchar
        </CharString>
        <CharString name="macron">
          -154 773 91 hstem
          40 315 vstem
          59 864 rmoveto
          -21 2 -3 -56 -26 1 -6 18 hvcurveto
          277 hlineto
          22 -3 9 44 35 -1 3 -18 hvcurveto
          endchar
        </CharString>
        <CharString name="minus">
          136 319 30 callsubr
          319 -48 callsubr
          endchar
        </CharString>
        <CharString name="mu">
          -21 -26 callgsubr
          12 callsubr
          hstem
          63 150 120 -39 callsubr
          483 -52 callgsubr
          -16 callgsubr
          -33 callsubr
          -355 vlineto
          -19 -4 -11 -37 28 callgsubr
          -6 callgsubr
          82 27 -18 callsubr
          -270 393 rmoveto
          -16 callgsubr
          -33 callsubr
          -683 -45 callgsubr
          endchar
        </CharString>
        <CharString name="multiply">
          24 21 -21 hstem
          32 509 vstem
          540 452 rmoveto
          -56 56 -198 -198 -197 198 -56 -56 197 -198 -198 -198 57 -56 197 198 199 -198 56 56 -199 198 rlineto
          endchar
        </CharString>
        <CharString name="n">
          -11 4 callsubr
          hstem
          58 -8 callgsubr
          233 -22 callsubr
          58 -85 callsubr
          -315 hmoveto
          -460 -90 callsubr
          423 -51 callgsubr
          endchar
        </CharString>
        <CharString name="nbspace">
          -343 endchar
        </CharString>
        <CharString name="nine">
          65 -2 97 -95 95 218 95 218 96 hstemhm
          59 150 -148 160 163 160 hintmask 01111010
          249 722 rmoveto
          -96 104 vlineto
          30 1 -3 callsubr
          hintmask 10110110
          -598 98 vlineto
          38 24 15 34 hvcurveto
          572 vlineto
          62 -13 41 -81 vhcurveto
          -229 -502 rmoveto
          -110 hlineto
          -51 1 -3 -40 hvcurveto
          -70 vlineto
          hintmask 01110110
          -63 7 -44 82 vhcurveto
          194 95 -102 hlineto
          -20 5 callgsubr
          hintmask 01111010
          -12 597 rmoveto
          -55 hlineto
          -65 -30 -22 -76 hvcurveto
          -221 vlineto
          -60 35 -30 63 vhcurveto
          187 -82 callsubr
          endchar
        </CharString>
        <CharString name="notequal">
          98 209 100 90 100 hstem
          25 580 vstem
          605 399 -48 callsubr
          559 -190 -48 callsubr
          59 -329 -1 callsubr
        </CharString>
        <CharString name="ntilde">
          -11 4 callsubr
          -39 callgsubr
          58 150 -95 60 159 150 -116 60 hintmask 11101010
          233 -22 callsubr
          58 -85 callsubr
          -315 hmoveto
          -460 -90 callsubr
          423 -51 callgsubr
          hintmask 11101001
          257 183 -55 callsubr
          hintmask 11011001
          -71 callsubr
          hintmask 11100101
          -100 callsubr
        </CharString>
        <CharString name="numbersign">
          139 153 70 177 70 253 -20 hstem
          25 638 vstem
          335 470 rmoveto
          18 callsubr
          -143 -70 117 hlineto
          -67 -177 rlineto
          -125 -70 98 hlineto
          -110 -293 rlineto
          80 hlineto
          110 293 rlineto
          140 hlineto
          -110 -293 rlineto
          80 hlineto
          110 293 rlineto
          153 70 -126 hlineto
          67 177 rlineto
          134 70 -108 hlineto
          18 callsubr
          -233 -247 rmoveto
          67 177 rlineto
          140 hlineto
          -67 -177 rlineto
          endchar
        </CharString>
        <CharString name="o">
          3 callsubr
          -13 callsubr
          155 vstem
          236 -35 callgsubr
          -102 callgsubr
          endchar
        </CharString>
        <CharString name="oacute">
          -12 -46 callsubr
          30 72 23 155 hintmask 11010100
          236 -35 callgsubr
          -102 callgsubr
          hintmask 11111100
          102 407 -98 callgsubr
        </CharString>
        <CharString name="ocircumflex">
          3 callsubr
          40 173 -13 callsubr
          155 vstem
          236 -35 callgsubr
          -102 callgsubr
          45 590 rmoveto
          -107 callgsubr
        </CharString>
        <CharString name="odieresis">
          3 callsubr
          61 138 -43 callgsubr
          -118 -33 callgsubr
          -134 155 hintmask 11110010
          236 -35 callgsubr
          -102 callgsubr
          hintmask 11101100
          131 576 -104 callgsubr
          -10 callgsubr
          -100 callgsubr
        </CharString>
        <CharString name="oe">
          249 -36 callgsubr
          -13 callsubr
          155 12 callgsubr
          vstem
          236 -35 callgsubr
          -102 callgsubr
          545 35 rmoveto
          -114 hlineto
          -105 callgsubr
          endchar
        </CharString>
        <CharString name="ogonek">
          -291 -172 32 hstem
          40 65 49 64 vstem
          105 -172 rmoveto
          182 -1 vlineto
          -57 -7 -14 -63 -82 -4 -23 68 hvcurveto
          50 67 rmoveto
          -22 vlineto
          -9 0 -4 -12 vhcurveto
          -24 -32 54 hlineto
          35 11 18 28 hvcurveto
          12 vlineto
          10 -4 -1 -11 vhcurveto
          endchar
        </CharString>
        <CharString name="ograve">
          -12 -46 callsubr
          30 77 18 155 hintmask 11010100
          hintmask 11011100
          236 -22 callsubr
          vlineto
          hintmask 11010100
          54 hlineto
          -102 callgsubr
          hintmask 11110100
          -57 600 rmoveto
          hintmask 11111100
          92 -193 rlineto
          72 -6 callgsubr
          59 3 -2 -51 vhcurveto
          endchar
        </CharString>
        <CharString name="one">
          -56 0 115 493 115 hstemhm
          34 145 -135 135 30 160 hintmask 11001000
          209 -19 callsubr
          230 96 hlineto
          14 -4 5 -21 vhcurveto
          -81 551 hlineto
          -73 callsubr
          hintmask 11101000
          -135 -723 rmoveto
          115 -120 vlineto
          -21 -4 -5 -14 hvcurveto
          -96 vlineto
          hintmask 11011000
          145 608 rmoveto
          115 -135 -87 vlineto
          -14 4 -14 21 vhcurveto
          endchar
        </CharString>
        <CharString name="one.dnom">
          -83 callsubr
        </CharString>
        <CharString name="one.numr">
          -83 callsubr
        </CharString>
        <CharString name="onehalf">
          5 0 45 60 40 98 36 165 14 callgsubr
          150 61 -59 62 65 61 hintmask 1111100110100000
          450 279 -80 callsubr
          -76 vlineto
          -32 -3 -17 -24 hvcurveto
          hintmask 0010101001000000
          -27 vlineto
          -13 5 -13 23 vhcurveto
          34 46 hlineto
          8 0 4 12 vhcurveto
          -289 480 -81 callgsubr
          hintmask 0001100100000000
          -56 callsubr
          57 235 rmoveto
          44 -53 -34 vlineto
          hintmask 0001010000000000
          -5 4 -5 7 vhcurveto
          51 -679 rmoveto
          -50 callgsubr
        </CharString>
        <CharString name="onequarter">
          4 21 -21 116 37 291 14 callgsubr
          157 58 46 60 hintmask 1111001110000000
          hintmask 0001010000000000
          432 279 -24 callgsubr
          hlineto
          hintmask 1111001110000000
          34 29 hlineto
          6 -4 2 -7 vhcurveto
          -23 103 hlineto
          -61 callsubr
          37 -14 hlineto
          -15 0 3 7 hvcurveto
          -278 560 -81 callgsubr
          -56 callsubr
          57 235 rmoveto
          44 -53 -34 vlineto
          hintmask 0010100000000000
          -5 4 -5 7 vhcurveto
          53 -679 rmoveto
          -50 callgsubr
        </CharString>
        <CharString name="onesuperior">
          -301 444 44 190 45 hstemhm
          42 56 -52 52 12 61 hintmask 11001000
          110 723 11 callgsubr
          -9 5 -6 8 vhcurveto
          89 37 hlineto
          5 -1 2 -9 vhcurveto
          -31 213 hlineto
          18 -4 4 -17 vhcurveto
          hintmask 11101000
          -52 -279 rmoveto
          44 -46 vlineto
          -8 -2 -2 -5 hvcurveto
          -37 vlineto
          hintmask 11011000
          56 234 rmoveto
          45 -52 -34 vlineto
          -5 2 -6 8 vhcurveto
          endchar
        </CharString>
        <CharString name="ordfeminine">
          -194 444 31 callgsubr
          85 vstem
          188 684 rmoveto
          42 -55 vlineto
          -19 callgsubr
          144 vlineto
          17 -1 10 24 vhcurveto
          48 42 rmoveto
          -219 vlineto
          -46 20 -17 41 vhcurveto
          46 hlineto
          0 3 0 4 vvcurveto
          34 vlineto
          3 0 1 -5 vhcurveto
          -2 hlineto
          -19 1 10 12 hvcurveto
          158 vlineto
          30 -10 30 -52 vhcurveto
          endchar
        </CharString>
        <CharString name="ordmasculine">
          -209 446 31 callgsubr
          87 vstem
          151 728 rmoveto
          -42 31 vlineto
          25 -2 -11 -16 hvcurveto
          -213 1 vlineto
          84 2 25 118 116 -4 23 -82 hvcurveto
          -72 hmoveto
          -1 hlineto
          -19 callgsubr
          endchar
        </CharString>
        <CharString name="oslash">
          -12 -26 callgsubr
          62 -62 -53 callsubr
          -32 32 223 -20 hstemhm
          -7 callsubr
          155 hintmask 11001111
          99 -223 rmoveto
          110 285 rlineto
          -80 hlineto
          -110 -285 rlineto
          347 691 rmoveto
          hintmask 11010111
          99 255 rlineto
          -80 hlineto
          -99 -255 rlineto
          -50 32 rmoveto
          -75 54 vlineto
          hintmask 11001111
          44 -3 -19 -29 hvcurveto
          -377 2 vlineto
          -84 callgsubr
          -127 hmoveto
          -2 hlineto
          -148 -5 -44 -209 -206 8 -41 145 hvcurveto
          97 hlineto
          hintmask 10101111
          75 -54 vlineto
          -44 3 19 29 hvcurveto
          endchar
        </CharString>
        <CharString name="otilde">
          3 callsubr
          -39 callgsubr
          51 155 -87 60 152 155 -114 60 hintmask 11001010
          236 -35 callgsubr
          -102 callgsubr
          hintmask 11101001
          176 560 -55 callsubr
          hintmask 11011001
          -71 callsubr
          hintmask 11101010
          -172 27 rlineto
          -3 -3 0 -2 hhcurveto
          -35 -20 -23 -29 hvcurveto
          -62 vlineto
          0 0 -6 3 vhcurveto
          hintmask 11100101
          53 hlineto
          2 2 0 8 hvcurveto
          4 vlineto
          11 5 4 8 vhcurveto
          1 2 0 2 hhcurveto
          172 -25 rlineto
          2 3 0 2 hhcurveto
          36 20 21 31 hvcurveto
          63 vlineto
          0 0 3 -3 vhcurveto
          endchar
        </CharString>
        <CharString name="p">
          -11 -26 callgsubr
          -53 callsubr
          hstem
          57 9 callsubr
          237 500 rmoveto
          -75 54 -35 callsubr
          -5 0 -6 -7 vvcurveto
          -254 vlineto
          -7 0 -6 -6 vvcurveto
          25 callgsubr
          145 8 41 206 209 -5 44 -148 hvcurveto
          -127 -723 rmoveto
          -11 callsubr
          endchar
        </CharString>
        <CharString name="paragraph">
          18 21 -21 223 -53 callsubr
          hstemhm
          44 196 74 72 30 80 hintmask 11111000
          274 648 rmoveto
          75 -77 vlineto
          -148 -5 -44 -209 -206 8 -41 145 hvcurveto
          77 75 -14 hlineto
          -22 2 18 30 hvcurveto
          1 callsubr
          30 1 18 19 vhcurveto
          126 -648 rmoveto
          723 -72 -723 vlineto
          hintmask 11111100
          102 -73 callgsubr
          -723 25 vlineto
          33 callsubr
          615 vlineto
          53 -1 1 -54 vhcurveto
          endchar
        </CharString>
        <CharString name="parenleft">
          26 callsubr
          70 8 callsubr
          310 724 rmoveto
          95 -152 vlineto
          -73 -15 -50 -40 hvcurveto
          -749 vlineto
          -40 15 -50 73 vhcurveto
          152 95 -53 -78 callsubr
          681 vlineto
          18 1 11 26 vhcurveto
          endchar
        </CharString>
        <CharString name="parenright">
          26 callsubr
          111 8 callsubr
          31 819 rmoveto
          -95 53 -36 callsubr
          -681 -4 callgsubr
          749 vlineto
          40 -15 50 -73 vhcurveto
          endchar
        </CharString>
        <CharString name="percent">
          97 0 34 callsubr
          79 34 callsubr
          hstem
          36 75 85 75 104 -97 callsubr
          endchar
        </CharString>
        <CharString name="period">
          -292 0 153 hstem
          53 152 vstem
          80 -65 callgsubr
          endchar
        </CharString>
        <CharString name="periodcentered">
          -277 231 157 hstem
          58 156 vstem
          86 388 -61 callgsubr
          endchar
        </CharString>
        <CharString name="perthousand">
          360 0 34 callsubr
          79 34 callsubr
          hstem
          36 75 85 75 104 75 85 75 34 -97 callsubr
          556 -444 rmoveto
          43 -34 vlineto
          -70 -5 -32 -128 hvcurveto
          -2 vlineto
          -122 5 -38 60 vhcurveto
          44 42 -16 hlineto
          -16 -2 5 8 hvcurveto
          211 vlineto
          8 2 5 16 vhcurveto
          34 43 rmoveto
          -43 14 vlineto
          17 2 -5 -8 hvcurveto
          -211 vlineto
          -8 -2 -5 -17 vhcurveto
          -14 -42 44 hlineto
          59 5 38 122 hvcurveto
          2 vlineto
          128 -6 32 -68 vhcurveto
          endchar
        </CharString>
        <CharString name="pi">
          34 0 75 348 77 hstemhm
          85 150 65 150 27 77 hintmask 11110000
          118 -52 callgsubr
          -100 -47 hlineto
          -14 4 -16 21 vhcurveto
          42 -423 61 hlineto
          -69 callgsubr
          346 65 -316 -93 callgsubr
          136 -28 callgsubr
          -37 -4 -58 callgsubr
          355 -94 callsubr
          hintmask 11111000
          140 hmoveto
          -77 -77 52 -40 callgsubr
        </CharString>
        <CharString name="plus">
          60 21 -21 239 100 hstem
          261 100 vstem
          361 339 rmoveto
          220 -100 -220 -236 -100 236 -239 100 239 223 100 vlineto
          endchar
        </CharString>
        <CharString name="plusminus">
          104 0 100 300 100 hstem
          283 100 vstem
          383 -52 callgsubr
          220 -100 -220 -236 -100 236 -239 100 239 223 100 vlineto
          -500 31 callsubr
        </CharString>
        <CharString name="product">
          60 21 -21 623 100 hstem
          120 82 205 82 vstem
          584 623 rmoveto
          100 -559 -100 95 -623 82 623 205 -623 82 623 vlineto
          endchar
        </CharString>
        <CharString name="q">
          -11 -26 callgsubr
          -53 callsubr
          -13 callsubr
          -39 callsubr
          -32 callgsubr
          -37 -4 11 18 hvcurveto
          6 0 6 7 vvcurveto
          1 callsubr
          7 0 6 5 vvcurveto
          19 4 11 37 5 callsubr
          -17 callgsubr
        </CharString>
        <CharString name="question">
          -37 3 139 198 95 193 95 hstemhm
          58 150 -148 151 -137 138 103 160 hintmask 11110010
          315 -73 callgsubr
          -259 -4 callgsubr
          196 vlineto
          66 -30 31 -55 vhcurveto
          -182 -518 rmoveto
          1 230 rlineto
          -53 hlineto
          -82 -16 -13 -69 hvcurveto
          -91 vlineto
          -46 20 -11 45 vhcurveto
          153 423 rmoveto
          95 -68 vlineto
          hintmask 11101010
          -111 -37 -44 -63 hvcurveto
          -96 151 78 vlineto
          19 1 11 30 vhcurveto
          hintmask 11100110
          -143 -486 rmoveto
          -6 -4 0 -3 hhcurveto
          -9 -2 -1 -10 -1 hvcurveto
          -117 vlineto
          -10 1 2 -1 9 3 4 0 6 hhcurveto
          91 hlineto
          13 8 -2 13 1 hvcurveto
          117 vlineto
          13 -1 -8 -2 -13 hhcurveto
          endchar
        </CharString>
        <CharString name="questiondown">
          -42 -207 95 193 95 198 139 hstemhm
          35 160 102 138 -136 151 -149 150 hintmask 11110010
          195 -207 rmoveto
          259 vlineto
          18 1 11 26 vhcurveto
          53 95 -152 hlineto
          -73 -15 -50 -40 hvcurveto
          -196 vlineto
          -66 30 -31 55 vhcurveto
          182 518 rmoveto
          -1 -230 rlineto
          53 hlineto
          82 16 13 69 hvcurveto
          91 vlineto
          46 -20 11 -45 vhcurveto
          -153 -423 rmoveto
          -95 68 vlineto
          hintmask 11110100
          111 37 -18 callsubr
          96 -151 -78 28 callsubr
          142 486 rmoveto
          6 4 0 3 hhcurveto
          9 2 1 10 1 hvcurveto
          117 vlineto
          10 -1 -2 1 -9 -3 -4 0 -6 hhcurveto
          -91 hlineto
          -13 -8 2 -13 -1 hvcurveto
          -117 vlineto
          -13 1 8 2 13 hhcurveto
          endchar
        </CharString>
        <CharString name="quotedbl">
          -146 480 283 hstem
          53 125 46 125 vstem
          349 480 rmoveto
          -25 callsubr
          -46 hmoveto
          -25 callsubr
          endchar
        </CharString>
        <CharString name="quotedblbase">
          -60 -2 153 hstemhm
          53 179 26 179 hintmask 11000000
          hintmask 11100000
          285 -88 callsubr
          hintmask 11000000
          -332 hmoveto
          -6 -16 callsubr
          hhcurveto
          -10 -2 -1 -11 -1 hvcurveto
          -129 vlineto
          -11 1 2 -1 10 3 5 0 6 hhcurveto
          40 hlineto
          22 -160 rlineto
          65 -9 callgsubr
          289 0 callsubr
        </CharString>
        <CharString name="quotedblleft">
          -33 668 95 hstem
          50 151 76 151 vstem
          266 668 rmoveto
          -57 callsubr
          261 hmoveto
          -57 callsubr
          endchar
        </CharString>
        <CharString name="quotedblright">
          -29 500 95 hstem
          103 151 74 151 vstem
          479 763 -56 callgsubr
          -225 156 -56 callgsubr
          endchar
        </CharString>
        <CharString name="quoteleft">
          -260 668 95 hstem
          50 151 vstem
          266 668 rmoveto
          -57 callsubr
          endchar
        </CharString>
        <CharString name="quoteright">
          -254 500 95 hstem
          103 151 vstem
          254 763 -56 callgsubr
          endchar
        </CharString>
        <CharString name="quotesinglbase">
          -265 -2 153 hstem
          53 179 vstem
          80 -88 callsubr
          endchar
        </CharString>
        <CharString name="quotesingle">
          -317 480 283 hstem
          53 125 vstem
          178 480 rmoveto
          -25 callsubr
          endchar
        </CharString>
        <CharString name="r">
          -239 4 callsubr
          hstem
          56 -39 callsubr
          165 -52 callgsubr
          -74 -35 -31 -80 hvcurveto
          -389 -45 callgsubr
          310 vlineto
          20 -1 18 33 vhcurveto
          45 hlineto
          8 0 3 4 hvcurveto
          61 vlineto
          7 -6 0 0 vhcurveto
          endchar
        </CharString>
        <CharString name="radical">
          238 -76 952 hstem
          -13 818 vstem
          316 -76 rmoveto
          489 952 rlineto
          -59 hlineto
          -419 -818 -169 298 -171 -161 23 -37 110 108 rlineto
          endchar
        </CharString>
        <CharString name="registered">
          291 -32 67 82 193 22 70 117 73 89 67 hstemhm
          30 68 155 120 99 137 -120 134 120 68 hintmask 1011111101000000
          423 748 -49 callsubr
          -1 -67 -49 callgsubr
          -49 -564 rmoveto
          475 -92 vlineto
          -16 -12 -12 -18 hvcurveto
          -402 vlineto
          -35 7 -8 35 vhcurveto
          hintmask 1011111011000000
          108 475 rmoveto
          -73 56 vlineto
          27 3 -7 -15 hvcurveto
          -72 vlineto
          -13 -3 -10 -27 vhcurveto
          -56 -70 93 hlineto
          116 11 33 101 88 -11 38 -116 hvcurveto
          hintmask 1111111101000000
          -24 -282 rmoveto
          -163 vlineto
          -17 14 -13 16 vhcurveto
          107 150 hlineto
          35 -12 8 -29 vhcurveto
          endchar
        </CharString>
        <CharString name="ring">
          -215 734 71 114 70 hstem
          40 71 114 69 vstem
          168 989 -57 callgsubr
        </CharString>
        <CharString name="s">
          23 callsubr
          hstem
          45 150 117 -39 callsubr
          -88 callgsubr
          endchar
        </CharString>
        <CharString name="scaron">
          23 callsubr
          20 163 hstemhm
          45 150 117 150 hintmask 11101100
          -88 callgsubr
          hintmask 11111100
          94 183 -74 callsubr
        </CharString>
        <CharString name="section">
          81 -223 95 188 95 156 95 222 95 hstemhm
          56 180 -161 160 156 160 -156 181 hintmask 11111001
          236 498 rmoveto
          225 -12 vlineto
          4 callgsubr
          hvcurveto
          -301 vlineto
          -120 14 -49 145 vhcurveto
          137 95 -74 hlineto
          -37 -5 -58 callgsubr
          1 126 rlineto
          114 95 -74 hlineto
          -30 -9 7 12 -2 hvcurveto
          159 -18 rmoveto
          -630 46 vlineto
          105 30 49 100 hvcurveto
          332 vlineto
          100 -30 49 -105 vhcurveto
          -165 316 rmoveto
          -95 vlineto
          hintmask 11110110
          88 hlineto
          -94 callgsubr
          -314 -723 -30 callsubr
          127 95 -88 0 callgsubr
        </CharString>
        <CharString name="semicolon">
          -261 0 150 197 153 hstemhm
          63 152 -102 115 hintmask 11010000
          90 150 rmoveto
          -24 -3 -10 -20 hvcurveto
          -120 50 -141 vlineto
          -31 14 -21 43 vhcurveto
          58 315 hlineto
          18 -8 10 -17 vhcurveto
          hintmask 11100000
          -113 350 rmoveto
          -104 callsubr
          endchar
        </CharString>
        <CharString name="seven">
          5 21 -21 322 117 168 116 hstemhm
          22 205 -165 165 30 160 hintmask 11100100
          257 -19 callsubr
          124 322 116 97 hlineto
          14 -4 4 -21 vhcurveto
          -91 229 hlineto
          -73 callsubr
          hintmask 11110100
          -135 -116 rmoveto
          116 -205 -88 vlineto
          -14 4 -14 21 vhcurveto
          hintmask 11101100
          180 -285 rmoveto
          117 -165 -89 vlineto
          -14 4 -14 21 vhcurveto
          endchar
        </CharString>
        <CharString name="six">
          70 0 95 218 95 219 96 hstem
          70 21 callsubr
          -39 callsubr
          230 -73 callgsubr
          -98 hlineto
          -38 -24 -15 -34 hvcurveto
          -572 vlineto
          -62 13 -40 81 vhcurveto
          201 95 -104 -66 callgsubr
          40 283 rmoveto
          -95 108 -36 callsubr
          -284 55 vlineto
          65 30 21 76 hvcurveto
          221 vlineto
          60 -35 30 -63 vhcurveto
          -189 315 rmoveto
          -96 104 vlineto
          32 1 -10 -19 hvcurveto
          -1 -111 rlineto
          89 hlineto
          61 9 13 40 hvcurveto
          76 vlineto
          63 -6 44 -82 vhcurveto
          endchar
        </CharString>
        <CharString name="slash">
          -107 723 -20 hstem
          19 406 vstem
          99 -140 -1 callsubr
        </CharString>
        <CharString name="softhyphen">
          -31 callsubr
        </CharString>
        <CharString name="space">
          -343 endchar
        </CharString>
        <CharString name="sterling">
          6 0 95 239 70 204 115 hstemhm
          92 160 26 140 0 110 hintmask 11110100
          405 334 rmoveto
          70 -153 319 -71 vlineto
          -64 -25 -31 -76 hvcurveto
          -212 -46 -70 46 -191 vlineto
          -20 1 -18 -33 vhcurveto
          -5 hlineto
          -8 0 -3 -4 hvcurveto
          -91 vlineto
          -7 6 0 0 vhcurveto
          110 hlineto
          56 33 41 70 hvcurveto
          223 vlineto
          186 -111 rmoveto
          16 callsubr
          -78 vlineto
          -18 -1 -11 -15 vhcurveto
          -108 -95 -6 callgsubr
          79 19 26 86 hvcurveto
          90 vlineto
          6 0 15 -14 vhcurveto
          hintmask 11111000
          -96 -52 callgsubr
          -140 -115 85 hlineto
          33 22 22 32 hvcurveto
          endchar
        </CharString>
        <CharString name="summation">
          87 -150 100 682 100 hstem
          46 559 vstem
          339 300 rmoveto
          -187 282 rlineto
          -106 hlineto
          188 -283 -188 -284 rlineto
          106 hlineto
          188 283 rlineto
          2 vlineto
          265 -450 -48 callsubr
          559 782 -48 callsubr
          endchar
        </CharString>
        <CharString name="t">
          -198 0 76 347 77 223 -20 hstemhm
          91 150 25 77 hintmask 11110000
          91 -73 callgsubr
          -223 -76 -8 callsubr
          51 -292 hlineto
          -100 45 -31 94 vhcurveto
          76 -17 callsubr
          1 7 vvcurveto
          61 vlineto
          4 0 3 -8 vhcurveto
          -21 hlineto
          -33 -9 17 20 hvcurveto
          532 vlineto
          43 -27 35 -62 vhcurveto
          hintmask 11111000
          191 -223 rmoveto
          -77 -77 52 -40 callgsubr
        </CharString>
        <CharString name="thorn">
          -10 -26 callgsubr
          -53 callsubr
          223 -20 hstem
          58 9 callsubr
          208 -223 rmoveto
          946 -61 vlineto
          -62 -27 -34 -43 hvcurveto
          -792 19 callsubr
          91 -73 callgsubr
          -75 54 -35 callsubr
          -5 0 -6 -7 vvcurveto
          -254 vlineto
          -7 0 -6 -6 vvcurveto
          25 callgsubr
          145 8 41 206 209 -5 44 -148 hvcurveto
          endchar
        </CharString>
        <CharString name="three">
          62 0 95 224 95 214 95 hstem
          56 160 166 8 callsubr
          381 -73 callgsubr
          -289 vlineto
          -9 -1 -9 -26 -1 vhcurveto
          -33 -1 rlineto
          -74 -95 108 hlineto
          -68 callgsubr
          -290 75 vlineto
          69 16 10 76 hvcurveto
          228 vlineto
          38 -8 26 -17 15 vhcurveto
          19 18 5 27 24 vvcurveto
          183 vlineto
          57 -20 21 -55 vhcurveto
          -124 -95 -40 callsubr
          -31 -392 -5 callsubr
          197 95 -95 -66 callgsubr
          endchar
        </CharString>
        <CharString name="three.dnom">
          -299 444 36 84 37 86 36 hstem
          35 61 58 61 vstem
          154 -73 callgsubr
          -111 -41 callsubr
          -109 29 vlineto
          26 5 4 32 hvcurveto
          82 -29 callgsubr
          74 -92 callgsubr
          endchar
        </CharString>
        <CharString name="three.numr">
          -299 444 36 80 37 90 36 hstem
          35 61 58 61 vstem
          154 -73 callgsubr
          -115 -41 callsubr
          -105 29 vlineto
          26 5 4 32 hvcurveto
          78 -29 callgsubr
          78 -92 callgsubr
          endchar
        </CharString>
        <CharString name="threequarters">
          -4 21 -21 116 37 291 36 80 37 90 36 hstem
          48 61 58 61 92 58 46 60 vstem
          424 279 -24 callgsubr
          34 29 hlineto
          6 -4 2 -7 vhcurveto
          -23 103 hlineto
          -61 callsubr
          37 -14 hlineto
          -15 0 3 7 hvcurveto
          -211 560 rmoveto
          -115 -41 callsubr
          -105 29 vlineto
          26 5 4 32 hvcurveto
          78 -29 callgsubr
          78 -92 callgsubr
          -19 -687 rmoveto
          -50 callgsubr
        </CharString>
        <CharString name="threesuperior">
          -260 444 37 86 37 82 37 hstemhm
          49 61 12 37 15 62 hintmask 11110100
          174 -73 callgsubr
          -112 vlineto
          -3 0 -4 -11 vhcurveto
          hintmask 11111100
          -12 hlineto
          -29 -37 hlineto
          hintmask 11110100
          42 hlineto
          10 0 -4 -7 hvcurveto
          -112 29 vlineto
          27 6 4 29 hvcurveto
          88 vlineto
          15 -3 10 -7 6 vhcurveto
          8 6 2 11 9 vvcurveto
          71 vlineto
          22 -8 8 -21 vhcurveto
          hintmask 11111100
          -48 -37 rmoveto
          37 vlineto
          hintmask 11110100
          -76 hlineto
          -32 -2 -17 -25 hvcurveto
          -33 vlineto
          -15 -1 -1 20 vhcurveto
          42 43 hlineto
          7 1 4 11 vhcurveto
          -12 -151 rmoveto
          -42 hlineto
          -20 1 -1 -16 hvcurveto
          -33 vlineto
          -24 2 -17 32 vhcurveto
          76 37 -37 hlineto
          -11 -1 4 7 hvcurveto
          endchar
        </CharString>
        <CharString name="tilde">
          -156 786 120 -118 90 hstemhm
          40 60 193 60 hintmask 10110000
          303 906 -55 callsubr
          hintmask 01110000
          -71 callsubr
          hintmask 10110000
          -100 callsubr
        </CharString>
        <CharString name="trademark">
          1099 21 -21 598 125 -95 95 hstemhm
          232 160 40 189 130 160 173 160 168 160 hintmask 10111111
          43 -44 callsubr
          hintmask 11011111
          15 callsubr
          682 hmoveto
          -95 vlineto
          hintmask 10111111
          111 hlineto
          26 1 -44 callgsubr
          vlineto
          hintmask 11011111
          105 hlineto
          45 10 11 46 hvcurveto
          hintmask 10111111
          -76 callgsubr
        </CharString>
        <CharString name="two">
          53 0 115 167 95 251 95 hstemhm
          57 160 -155 160 40 280 -159 160 hintmask 11101010
          383 -73 callgsubr
          -317 -53 callgsubr
          -39 -95 138 hlineto
          73 15 50 40 hvcurveto
          1 callsubr
          66 -30 31 -55 vhcurveto
          -181 -441 rmoveto
          95 -137 vlineto
          -63 -15 -10 -60 hvcurveto
          -211 vlineto
          -86 10 -10 65 vhcurveto
          85 253 hlineto
          18 1 11 26 vhcurveto
          hintmask 11110100
          13 -167 rmoveto
          1 -115 rlineto
          280 87 hlineto
          14 -4 14 -21 vhcurveto
          -175 513 -40 callsubr
          endchar
        </CharString>
        <CharString name="two.dnom">
          -289 444 45 60 40 98 36 hstemhm
          35 61 -59 62 65 61 hintmask 11110100
          164 723 -80 callsubr
          vlineto
          hintmask 11101100
          -76 hlineto
          -32 -3 -17 -24 hvcurveto
          -27 vlineto
          -13 5 -13 23 vhcurveto
          34 46 hlineto
          8 0 4 12 vhcurveto
          endchar
        </CharString>
        <CharString name="twosuperior">
          -259 445 44 65 36 97 37 hstem
          52 62 62 61 vstem
          176 724 rmoveto
          -122 vlineto
          -7 -1 -5 -10 vhcurveto
          -15 -36 53 hlineto
          29 5 19 15 hvcurveto
          98 vlineto
          26 -11 12 -21 vhcurveto
          -70 -170 rmoveto
          36 -53 vlineto
          -24 -6 -4 -23 hvcurveto
          -81 vlineto
          -33 4 -4 25 vhcurveto
          33 98 hlineto
          6 0 5 10 vhcurveto
          5 -65 rmoveto
          -44 108 34 vlineto
          5 -1 5 -8 vhcurveto
          -68 198 rmoveto
          37 -76 vlineto
          -31 -3 -17 -25 hvcurveto
          -33 vlineto
          -15 0 -1 19 vhcurveto
          43 43 hlineto
          7 0 4 12 vhcurveto
          endchar
        </CharString>
        <CharString name="u">
          -1 32 callsubr
          hstem
          56 -8 callgsubr
          -102 callsubr
          endchar
        </CharString>
        <CharString name="uacute">
          7 callsubr
          15 72 37 150 hintmask 11010100
          -102 callsubr
          hintmask 11111100
          -151 30 -98 callgsubr
        </CharString>
        <CharString name="ucircumflex">
          -1 32 callsubr
          60 173 hstem
          56 -8 callgsubr
          -102 callsubr
          -208 213 rmoveto
          -107 callgsubr
        </CharString>
        <CharString name="udieresis">
          -1 32 callsubr
          81 22 callgsubr
          56 150 -133 -33 callgsubr
          -120 150 hintmask 11110010
          -102 callsubr
          hintmask 11101100
          -122 -106 callgsubr
        </CharString>
        <CharString name="ugrave">
          7 callsubr
          124 150 hintmask 11011000
          -102 callsubr
          hintmask 11111000
          -310 223 -95 callsubr
        </CharString>
        <CharString name="underscore">
          52 -187 110 hstem
          58 485 vstem
          543 -187 rmoveto
          110 -485 -110 vlineto
          endchar
        </CharString>
        <CharString name="v">
          -39 32 callsubr
          hstem
          55 150 100 -39 callsubr
          455 500 -34 callsubr
          -17 -24 hvcurveto
          -334 vlineto
          -19 -1 -31 -34 vhcurveto
          -75 36 vlineto
          132 17 83 73 hvcurveto
          -400 344 rmoveto
          -344 vlineto
          -73 17 -83 132 vhcurveto
          36 75 hlineto
          -34 -1 31 19 hvcurveto
          334 vlineto
          24 -10 17 -26 vhcurveto
          endchar
        </CharString>
        <CharString name="w">
          -105 callsubr
          endchar
        </CharString>
        <CharString name="wacute">
          -105 callsubr
          -293 30 -98 callgsubr
        </CharString>
        <CharString name="wcircumflex">
          -105 callsubr
          -350 213 rmoveto
          -107 callgsubr
        </CharString>
        <CharString name="wdieresis">
          -105 callsubr
          -264 -106 callgsubr
        </CharString>
        <CharString name="wgrave">
          -105 callsubr
          -452 223 -95 callsubr
        </CharString>
        <CharString name="x">
          -45 21 -21 161 75 20 75 169 -20 hstemhm
          52 150 100 150 hintmask 11011100
          452 500 -34 callsubr
          -17 -24 hvcurveto
          hintmask 11111100
          -98 vlineto
          -19 -1 -11 -18 vhcurveto
          -16 -75 76 hlineto
          82 27 33 63 hvcurveto
          hintmask 11011100
          -215 -191 rmoveto
          75 -76 vlineto
          -82 -27 -33 -63 hvcurveto
          -140 114 vlineto
          26 10 17 24 hvcurveto
          90 vlineto
          19 1 11 18 vhcurveto
          46 75 rmoveto
          -75 16 vlineto
          18 1 -3 callsubr
          -90 vlineto
          -24 10 -17 21 callgsubr
          140 hlineto
          63 -27 33 -82 vhcurveto
          -291 264 rmoveto
          hintmask 11111100
          -148 vlineto
          -63 27 -33 82 vhcurveto
          76 75 -16 hlineto
          -18 5 callgsubr
          98 vlineto
          24 -10 17 -26 vhcurveto
          endchar
        </CharString>
        <CharString name="y">
          -52 callsubr
          425 -20 -37 callsubr
          12 callgsubr
          hintmask 01111010
          -60 callsubr
          136 -28 callgsubr
          -37 -4 -58 callgsubr
          355 -94 callsubr
          hintmask 01110110
          46 -564 -27 callgsubr
          -30 -93 callgsubr
          126 75 -54 -66 callgsubr
          115 617 rmoveto
          hintmask 10111010
          -17 callgsubr
        </CharString>
        <CharString name="yacute">
          -11 -223 76 -75 75 147 14 callsubr
          -140 150 3 72 40 150 hintmask 0111010010000000
          hintmask 0111001010000000
          56 500 rmoveto
          -84 callsubr
          hintmask 1011010010000000
          -114 hlineto
          -63 callgsubr
          -30 -93 callgsubr
          126 75 -54 -66 callgsubr
          115 617 rmoveto
          -86 callsubr
          hintmask 0111110110000000
          -101 30 -98 callgsubr
        </CharString>
        <CharString name="ycircumflex">
          -52 callsubr
          425 -20 60 173 -37 callsubr
          12 callgsubr
          hintmask 01111101
          hintmask 01111011
          56 500 rmoveto
          -84 callsubr
          hintmask 10111101
          -114 hlineto
          -63 callgsubr
          -30 -93 callgsubr
          126 75 -54 -66 callgsubr
          115 617 rmoveto
          -86 callsubr
          -158 213 rmoveto
          -107 callgsubr
        </CharString>
        <CharString name="ydieresis">
          -52 callsubr
          425 -20 81 138 -37 callsubr
          -145 -33 callgsubr
          -117 150 hintmask 0111110001000000
          56 -52 callgsubr
          hintmask 1011101001000000
          -84 callsubr
          hintmask 0111101010000000
          -114 hlineto
          -63 callgsubr
          -30 -93 callgsubr
          126 75 -54 -66 callgsubr
          115 617 rmoveto
          -723 vlineto
          hintmask 0111110001000000
          61 hlineto
          -69 callgsubr
          569 -54 callsubr
          -72 -62 callsubr
          hintmask 0111100101000000
          -356 -106 callsubr
          endchar
        </CharString>
        <CharString name="yen">
          17 0 184 -70 70 40 70 40 95 294 -20 hstemhm
          46 160 -106 170 -71 160 -49 149 -98 160 hintmask 1011110001000000
          hintmask 0111100100000000
          459 114 rmoveto
          hintmask 1011100100000000
          70 -100 40 vlineto
          hintmask 1011101010000000
          100 70 -215 hlineto
          -144 -70 hlineto
          hintmask 1011100100000000
          99 -40 -99 hlineto
          hintmask 0111100100000000
          -70 99 vlineto
          hintmask 1011100100000000
          -57 vlineto
          -46 10 -11 45 vhcurveto
          105 hlineto
          hintmask 0111100100000000
          114 vlineto
          hintmask 1011110001000000
          -153 609 rmoveto
          -105 hlineto
          -35 -20 -12 -35 hvcurveto
          -270 vlineto
          -47 15 -25 53 vhcurveto
          hintmask 1011101001000000
          156 95 hlineto
          hintmask 1011110001000000
          -36 hlineto
          -26 -2 -32 callsubr
          155 265 rmoveto
          -265 -53 callgsubr
          hintmask 1011110010000000
          -24 -95 hlineto
          hintmask 1011110001000000
          153 hlineto
          43 15 30 40 hvcurveto
          262 vlineto
          46 -16 11 -39 vhcurveto
          endchar
        </CharString>
        <CharString name="ygrave">
          -11 -223 76 -75 75 147 14 callsubr
          -140 150 12 callgsubr
          hintmask 01110101
          hintmask 01110011
          56 500 rmoveto
          -84 callsubr
          hintmask 10110101
          -114 hlineto
          -63 callgsubr
          -30 -93 callgsubr
          126 75 -54 -66 callgsubr
          115 617 rmoveto
          -86 callsubr
          hintmask 01111101
          -260 223 -95 callsubr
        </CharString>
        <CharString name="z">
          -31 0 75 135 6 callsubr
          hstem
          51 150 12 callgsubr
          vstem
          -89 callgsubr
          endchar
        </CharString>
        <CharString name="zcaron">
          -31 0 75 135 6 callsubr
          20 163 hstemhm
          51 150 12 callgsubr
          hintmask 11101100
          -89 callgsubr
          hintmask 11111100
          209 258 -74 callsubr
        </CharString>
        <CharString name="zero">
          107 0 95 533 95 hstem
          63 170 190 170 vstem
          348 11 callsubr
          34 -47 callgsubr
          -18 hvcurveto
          -475 vlineto
          -18 callgsubr
          -34 -95 99 hlineto
          134 12 84 276 hvcurveto
          3 vlineto
          289 -13 71 -155 vhcurveto
          -117 -95 rmoveto
          95 -77 vlineto
          -12 callsubr
          -71 -289 hvcurveto
          -3 vlineto
          -276 12 -84 134 vhcurveto
          99 95 -34 20 callsubr
          475 vlineto
          18 35 callsubr
          endchar
        </CharString>
        <CharString name="zero.dnom">
          -85 callgsubr
        </CharString>
        <CharString name="zero.numr">
          -85 callgsubr
        </CharString>
      <CharString index="0">
        -14 -9 0 -8 hhcurveto
        -23 1 -3 -29 -15 hvcurveto
        -76 -141 rlineto
        112 hlineto
        57 120 57 -120 rlineto
        111 hlineto
        -64 126 rlineto
        43 -22 6 4 -36 -8 -10 0 -13 hhcurveto
        endchar
      </CharString>
      <CharString index="1">
        199 -104 callgsubr
        -10 callgsubr
        -100 callgsubr
      </CharString>
      <CharString index="2">
        -63 callgsubr
        -32 vlineto
        -66 callsubr
        126 hlineto
        82 27 -18 callsubr
        -235 393 rmoveto
        -75 54 vlineto
        30 1 -3 callsubr
        -76 vlineto
        -22 -9 -7 -32 28 callgsubr
        22 callsubr
        78 20 41 49 hvcurveto
        88 vlineto
        63 -21 44 -98 vhcurveto
        return
      </CharString>
      <CharString index="3">
        -107 callsubr
        7 callgsubr
        return
      </CharString>
      <CharString index="4">
        -32 callgsubr
        -44 3 19 29 hvcurveto
        1 callsubr
        30 -2 18 43 vhcurveto
        -99 callsubr
        return
      </CharString>
      <CharString index="5">
        44 -3 -19 -29 hvcurveto
        -377 2 vlineto
        -84 callgsubr
        -127 hmoveto
        -2 hlineto
        -148 -5 -44 -209 -206 8 -41 145 hvcurveto
        97 -28 callgsubr
        -44 3 19 29 hvcurveto
        return
      </CharString>
      <CharString index="6">
        230 -73 callgsubr
        -70 callsubr
        -554 -11 callgsubr
        165 return
      </CharString>
      <CharString index="7">
        -2 callgsubr
        9 -1 vhcurveto
        118 hlineto
        13 1 -2 4 20 -2 callsubr
        13 1 7 -12 2 vhcurveto
        endchar
      </CharString>
      <CharString index="8">
        -45 -10 -11 -46 hvcurveto
        -609 vlineto
        -46 10 -11 45 vhcurveto
        return
      </CharString>
      <CharString index="9">
        rmoveto
        92 193 rlineto
        -116 hlineto
        -51 3 2 -59 hvcurveto
        -136 vlineto
        endchar
      </CharString>
      <CharString index="10">
        40 598 rmoveto
        -95 74 vlineto
        37 4 -44 callgsubr
        12 vlineto
        155 13 70 290 290 -13 73 -155 hvcurveto
        return
      </CharString>
      <CharString index="11">
        vlineto
        -99 callgsubr
        return
      </CharString>
      <CharString index="12">
        231 hmoveto
        723 -105 -96 callgsubr
        return
      </CharString>
      <CharString index="13">
        -68 callgsubr
        -78 vlineto
        -17 1 -4 19 vhcurveto
        126 hlineto
        14 0 15 6 hvcurveto
        90 vlineto
        86 -56 26 -92 vhcurveto
        return
      </CharString>
      <CharString index="14">
        vlineto
        -63 27 -44 82 vhcurveto
        return
      </CharString>
      <CharString index="15">
        vlineto
        23 -8 7 -19 vhcurveto
        -92 -184 rmoveto
        -36 hlineto
        -24 -1 -13 -13 hvcurveto
        -28 vlineto
        -24 0 -17 32 vhcurveto
        73 36 -33 hlineto
        -11 0 5 8 hvcurveto
        44 194 rmoveto
        36 -73 vlineto
        -32 0 -17 -24 hvcurveto
        -26 vlineto
        -14 1 -13 24 vhcurveto
        36 46 hlineto
        8 0 4 11 vhcurveto
        return
      </CharString>
      <CharString index="16">
        59 -8 160 hintmask 0111010001000000
        hintmask 0111010010000000
        204 -73 callgsubr
        hintmask 1011010010000000
        -87 callgsubr
        hintmask 0111001001000000
        -125 -70 callgsubr
        hintmask 0111010001000000
        -160 vlineto
        -46 10 -11 45 vhcurveto
        -67 callgsubr
        hintmask 0111010010000000
        -24 -95 hlineto
        hintmask 0111010001000000
        -72 callgsubr
        hintmask 0111110101000000
        return
      </CharString>
      <CharString index="17">
        206 hmoveto
        500 -2 vlineto
        -145 -8 -41 -206 -209 5 -44 148 hvcurveto
        return
      </CharString>
      <CharString index="18">
        333 -52 callgsubr
        -19 2 -8 -11 hvcurveto
        -167 vlineto
        -19 -1 -10 -30 28 callgsubr
        156 hlineto
        82 -3 45 63 hvcurveto
        141 vlineto
        24 -10 17 -26 vhcurveto
        -229 -500 rmoveto
        285 -91 vlineto
        -52 -7 -34 -33 hvcurveto
        -157 vlineto
        -36 14 -25 47 vhcurveto
        354 159 rmoveto
        -150 -54 hlineto
        -66 callsubr
        180 hlineto
        36 19 19 36 hvcurveto
        -178 370 rmoveto
        75 -180 vlineto
        -36 -19 -19 -36 hvcurveto
        -104 150 54 vlineto
        19 1 11 30 vhcurveto
        return
      </CharString>
      <CharString index="19">
        195 -52 callgsubr
        -106 -44 -20 -91 hvcurveto
        -70 -93 callgsubr
        128 75 -56 -66 callgsubr
        2 -159 -27 callgsubr
        -30 -93 callgsubr
        126 75 -54 -66 callgsubr
        115 182 rmoveto
        -287 vlineto
        106 44 20 91 hvcurveto
        69 vlineto
        63 -27 44 -82 vhcurveto
        -128 213 rmoveto
        -75 54 vlineto
        30 1 -3 callsubr
        -33 vlineto
        -24 10 3 21 callgsubr
        52 hlineto
        63 -27 44 -82 vhcurveto
        return
      </CharString>
      <CharString index="20">
        -105 hlineto
        -35 -20 -12 -35 hvcurveto
        -290 vlineto
        -47 15 -25 53 vhcurveto
        156 95 -36 hlineto
        -26 -2 -32 callsubr
        163 -438 rmoveto
        274 vlineto
        return
      </CharString>
      <CharString index="21">
        vlineto
        -80 35 -31 74 -58 callsubr
        -25 -77 callgsubr
        532 vlineto
        43 -27 return
      </CharString>
      <CharString index="22">
        -273 444 36 207 36 hstem
        35 66 74 66 vstem
        146 -73 callgsubr
        -36 13 vlineto
        14 2 -4 -8 hvcurveto
        -183 vlineto
        -7 -2 -5 -14 vhcurveto
        -13 -36 37 hlineto
        52 6 33 105 hvcurveto
        3 vlineto
        111 -7 27 -59 vhcurveto
        -45 -36 rmoveto
        36 -29 vlineto
        -59 -7 -27 -111 hvcurveto
        -3 vlineto
        -105 6 -33 52 vhcurveto
        37 36 -13 hlineto
        -14 -2 5 7 hvcurveto
        183 vlineto
        8 2 4 14 vhcurveto
        endchar
      </CharString>
      <CharString index="23">
        148 5 44 209 206 -8 41 -145 hvcurveto
        return
      </CharString>
      <CharString index="24">
        -26 -1 -32 callsubr
        return
      </CharString>
      <CharString index="25">
        rmoveto
        -209 -115 162 hlineto
        46 1 10 45 hvcurveto
        return
      </CharString>
      <CharString index="26">
        11 callgsubr
        -8 6 -7 7 vhcurveto
        90 37 hlineto
        7 -1 0 -9 vhcurveto
        -30 13 callgsubr
        19 -4 4 -18 vhcurveto
        return
      </CharString>
      <CharString index="27">
        -259 -140 202 -54 callgsubr
        return
      </CharString>
      <CharString index="28">
        -333 -182 rmoveto
        -14 0 -15 -6 hvcurveto
        -90 -11 callgsubr
        78 vlineto
        17 -1 4 -19 vhcurveto
        80 -52 callgsubr
        -95 88 vlineto
        -94 callgsubr
        return
      </CharString>
      <CharString index="29">
        -91 vlineto
        -6 0 -5 -3 vvcurveto
        return
      </CharString>
      <CharString index="30">
        hlineto
        -33 1 18 20 hvcurveto
        return
      </CharString>
      <CharString index="31">
        554 vlineto
        86 -56 26 -92 vhcurveto
        -513 -723 rmoveto
        -38 callsubr
        9 -11 46 vhcurveto
        146 11 callsubr
        105 -36 callsubr
        -456 vlineto
        -48 15 -22 41 vhcurveto
        104 610 hlineto
        24 -15 16 -21 vhcurveto
        endchar
      </CharString>
      <CharString index="32">
        -19 -1 -11 -30 vhcurveto
        return
      </CharString>
      <CharString index="33">
        rmoveto
        -608 vlineto
        -20 1 -18 -33 vhcurveto
        -25 hlineto
        -8 0 -3 -4 hvcurveto
        -61 vlineto
        -7 6 0 0 vhcurveto
        100 hlineto
        74 35 31 80 hvcurveto
        533 -54 callsubr
        13 -81 callsubr
        endchar
      </CharString>
      <CharString index="34">
        723 rmoveto
        return
      </CharString>
      <CharString index="35">
        153 hlineto
        43 15 30 40 hvcurveto
        282 vlineto
        46 -16 11 -39 vhcurveto
        return
      </CharString>
      <CharString index="36">
        236 722 rmoveto
        -12 hlineto
        4 callgsubr
        -150 13 -69 155 hvcurveto
        127 95 -74 hlineto
        -37 -4 -58 callgsubr
        155 -30 rmoveto
        -405 12 vlineto
        155 13 13 200 180 -13 12 -155 hvcurveto
        return
      </CharString>
      <CharString index="37">
        hlineto
        -45 -10 -11 -46 hvcurveto
        return
      </CharString>
      <CharString index="38">
        62 27 34 43 hvcurveto
        return
      </CharString>
      <CharString index="39">
        26 1 -11 -18 hvcurveto
        return
      </CharString>
      <CharString index="40">
        117 -73 callgsubr
        -285 vlineto
        -17 -1 -12 -26 vhcurveto
        return
      </CharString>
      <CharString index="41">
        hlineto
        -30 5 callgsubr
        return
      </CharString>
      <CharString index="42">
        153 rmoveto
        -104 callsubr
        return
      </CharString>
      <CharString index="43">
        62 21 -21 335 95 198 95 return
      </CharString>
      <CharString index="44">
        -26 -10 3 -24 hvcurveto
        return
      </CharString>
      <CharString index="45">
        -22 callgsubr
        33 8 -6 -24 hvcurveto
        -474 vlineto
        -23 -8 -6 -33 vhcurveto
        -74 -95 22 callsubr
        100 39 29 165 hvcurveto
        40 -1 76 53 76 2 71 49 vvcurveto
        134 -37 30 -93 vhcurveto
        return
      </CharString>
      <CharString index="46">
        -67 callsubr
        -11 -2 -1 -12 -1 hvcurveto
        -132 vlineto
        -11 1 2 -1 11 3 5 0 6 hhcurveto
        102 hlineto
        16 8 -2 14 2 hvcurveto
        132 vlineto
        15 -2 -8 -2 -16 hhcurveto
        return
      </CharString>
      <CharString index="47">
        48 -15 22 -41 vhcurveto
        231 223 rmoveto
        -723 return
      </CharString>
      <CharString index="48">
        30 0 140 180 115 148 140 return
      </CharString>
      <CharString index="49">
        11 19 hvcurveto
        return
      </CharString>
      <CharString index="50">
        rmoveto
        -71 -57 -57 -70 -70 57 -58 71 70 56 58 70 70 -56 57 -70 hvcurveto
        -70 vmoveto
        31 26 -25 -32 -31 -26 -26 -31 -32 -25 26 31 32 25 25 32 hvcurveto
        endchar
      </CharString>
      <CharString index="51">
        rmoveto
        -151 -138 -13 callgsubr
        -34 -95 97 hlineto
        82 37 -18 callsubr
        return
      </CharString>
      <CharString index="52">
        -52 callgsubr
        -37 callgsubr
        return
      </CharString>
      <CharString index="53">
        hlineto
        46 11 10 45 hvcurveto
        return
      </CharString>
      <CharString index="54">
        vlineto
        -18 -1 -11 -26 vhcurveto
        return
      </CharString>
      <CharString index="55">
        500 rmoveto
        return
      </CharString>
      <CharString index="56">
        hlineto
        -75 callsubr
        return
      </CharString>
      <CharString index="57">
        402 723 rlineto
        -70 hlineto
        -402 -723 rlineto
        endchar
      </CharString>
      <CharString index="58">
        rmoveto
        176 145 -145 -179 -177 -145 -145 -176 -178 -146 145 177 179 146 145 178 hvcurveto
        return
      </CharString>
      <CharString index="59">
        vlineto
        128 -15 rlineto
        3 2 -1 3 hhcurveto
        22 -1 18 31 hvcurveto
        57 -157 return
      </CharString>
      <CharString index="60">
        vlineto
        37 4 -11 return
      </CharString>
      <CharString index="61">
        -12 callgsubr
        155 170 vstem
        231 hmoveto
        -38 callsubr
        10 -11 45 vhcurveto
        145 return
      </CharString>
      <CharString index="62">
        61 vlineto
        -69 callgsubr
        return
      </CharString>
      <CharString index="63">
        -11 -18 hvcurveto
        -599 return
      </CharString>
      <CharString index="64">
        hstemhm
        51 155 return
      </CharString>
      <CharString index="65">
        hstem
        51 155 116 -39 callsubr
        -90 callgsubr
        return
      </CharString>
      <CharString index="66">
        71 160 return
      </CharString>
      <CharString index="67">
        hlineto
        21 4 16 14 hvcurveto
        endchar
      </CharString>
      <CharString index="68">
        63 120 -118 90 hstemhm
        return
      </CharString>
      <CharString index="69">
        -31 -2 -18 23 vhcurveto
        2 3 1 3 hhcurveto
        130 15 rlineto
        return
      </CharString>
      <CharString index="70">
        -393 -93 callgsubr
        return
      </CharString>
      <CharString index="71">
        0 6 callsubr
        135 75 return
      </CharString>
      <CharString index="72">
        -22 callsubr
        54 vlineto
        return
      </CharString>
      <CharString index="73">
        vlineto
        -80 35 -31 74 vhcurveto
        return
      </CharString>
      <CharString index="74">
        139 99 139 return
      </CharString>
      <CharString index="75">
        29 callsubr
        -148 -5 -44 -209 -206 8 -41 145 hvcurveto
        97 -28 callgsubr
        return
      </CharString>
      <CharString index="76">
        rmoveto
        -559 250 rlineto
        -100 vlineto
        447 -200 -447 -200 rlineto
        -100 vlineto
        559 250 rlineto
        return
      </CharString>
      <CharString index="77">
        -187 -724 rmoveto
        724 -105 vlineto
        -44 -11 -11 -46 hvcurveto
        -610 vlineto
        -46 11 -11 44 vhcurveto
        endchar
      </CharString>
      <CharString index="78">
        vlineto
        15 -2 10 -6 6 vhcurveto
        6 7 2 10 9 vvcurveto
        return
      </CharString>
      <CharString index="79">
        75 -54 hlineto
        return
      </CharString>
      <CharString index="80">
        -34 callsubr
        3 -24 hvcurveto
        return
      </CharString>
      <CharString index="81">
        -202 -21 223 return
      </CharString>
      <CharString index="82">
        75 350 return
      </CharString>
      <CharString index="83">
        11 callgsubr
        -8 5 -7 7 vhcurveto
        48 116 return
      </CharString>
      <CharString index="84">
        -246 21 -21 723 -20 return
      </CharString>
      <CharString index="85">
        rmoveto
        -95 74 vlineto
        return
      </CharString>
      <CharString index="86">
        10 -81 callsubr
        return
      </CharString>
      <CharString index="87">
        2 callsubr
        -60 callgsubr
        return
      </CharString>
      <CharString index="88">
        -83 -3 -25 -118 -116 4 -23 82 hvcurveto
        55 42 -31 hlineto
        -24 1 11 16 hvcurveto
        return
      </CharString>
      <CharString index="89">
        -18 -4 -11 -37 vhcurveto
        return
      </CharString>
      <CharString index="90">
        -86 callsubr
        endchar
      </CharString>
      <CharString index="91">
        -114 hlineto
        return
      </CharString>
      <CharString index="92">
        -49 vlineto
        -24 10 3 21 callgsubr
        68 32 callgsubr
      </CharString>
      <CharString index="93">
        35 callgsubr
        180 return
      </CharString>
      <CharString index="94">
        hlineto
        -75 callgsubr
        return
      </CharString>
      <CharString index="95">
        hstem
        -41 callgsubr
        return
      </CharString>
      <CharString index="96">
        vlineto
        -86 56 -26 92 vhcurveto
        147 -82 callsubr
        return
      </CharString>
      <CharString index="97">
        -89 callsubr
        -78 callgsubr
        return
      </CharString>
      <CharString index="98">
        hlineto
        15 8 -2 14 2 hvcurveto
        return
      </CharString>
      <CharString index="99">
        150 124 -39 callsubr
        return
      </CharString>
      <CharString index="100">
        -29 callsubr
        40 return
      </CharString>
      <CharString index="101">
        136 hlineto
        return
      </CharString>
      <CharString index="102">
        26 callgsubr
        6 callgsubr
        51 155 return
      </CharString>
      <CharString index="103">
        -53 callgsubr
        -53 -95 152 hlineto
        73 15 50 40 hvcurveto
        return
      </CharString>
      <CharString index="104">
        -269 -140 return
      </CharString>
      <CharString index="105">
        -8 1 -2 return
      </CharString>
      <CharString index="106">
        vlineto
        -10 1 1 -1 9 3 5 0 5 hhcurveto
        91 hlineto
        14 7 return
      </CharString>
      <CharString index="107">
        8 callgsubr
        endchar
      </CharString>
      <CharString index="108">
        193 hstemhm
        return
      </CharString>
      <CharString index="109">
        -202 -202 96 288 65 26 65 289 96 hstemhm
        return
      </CharString>
      <CharString index="110">
        -125 vlineto
        -45 -10 -11 -46 hvcurveto
        return
      </CharString>
      <CharString index="111">
        -12 callsubr
        -63 -130 return
      </CharString>
      <CharString index="112">
        -1 -58 callgsubr
        return
      </CharString>
      <CharString index="113">
        30 1 callgsubr
        return
      </CharString>
      <CharString index="114">
        -356 hmoveto
        return
      </CharString>
      <CharString index="115">
        -78 callsubr
        78 -23 callsubr
        return
      </CharString>
      <CharString index="116">
        345 rmoveto
        134 vlineto
        -91 -98 rlineto
        -128 vlineto
        return
      </CharString>
      <CharString index="117">
        76 hstemhm
        92 150 22 70 return
      </CharString>
      <CharString index="118">
        rmoveto
        -264 vlineto
        return
      </CharString>
      <CharString index="119">
        115 150 return
      </CharString>
      <CharString index="120">
        212 hlineto
        return
      </CharString>
      <CharString index="121">
        44 191 44 hstemhm
        40 57 -53 53 11 63 return
      </CharString>
      <CharString index="122">
        75 0 95 215 95 223 94 -94 95 return
      </CharString>
      <CharString index="123">
        hstemhm
        44 160 -17 81 40 59 -8 160 return
      </CharString>
      <CharString index="124">
        -94 -45 -31 -100 hvcurveto
        return
      </CharString>
      <CharString index="125">
        -3 rrcurveto
        74 hlineto
        56 47 42 70 7 hvcurveto
        return
      </CharString>
      <CharString index="126">
        0 -1 -46 hvcurveto
        -370 vlineto
        -46 0 -1 return
      </CharString>
      <CharString index="127">
        rmoveto
        -12 hlineto
        -12 callsubr
        return
      </CharString>
      <CharString index="128">
        26 vhcurveto
        114 return
      </CharString>
      <CharString index="129">
        138 hstemhm
        return
      </CharString>
      <CharString index="130">
        94 0 95 219 95 219 95 return
      </CharString>
      <CharString index="131">
        vvcurveto
        83 vlineto
        12 1 6 -11 2 vhcurveto
        return
      </CharString>
      <CharString index="132">
        -18 callgsubr
        -54 -75 97 hlineto
        return
      </CharString>
      <CharString index="133">
        -29 -36 callgsubr
        return
      </CharString>
      <CharString index="134">
        158 rmoveto
        return
      </CharString>
      <CharString index="135">
        vhcurveto
        -54 -75 return
      </CharString>
      <CharString index="136">
        rmoveto
        -3 callgsubr
        13 callgsubr
        return
      </CharString>
      <CharString index="137">
        75 30 193 -43 callgsubr
        return
      </CharString>
      <CharString index="138">
        42 198 42 hstem
        47 87 71 return
      </CharString>
      <CharString index="139">
        hlineto
        63 -27 44 -82 vhcurveto
        endchar
      </CharString>
      <CharString index="140">
        -29 -8 0 -21 vhcurveto
        return
      </CharString>
      <CharString index="141">
        -20 -12 callgsubr
        return
      </CharString>
      <CharString index="142">
        180 155 return
      </CharString>
      <CharString index="143">
        46 -564 rmoveto
        return
      </CharString>
</ttFont>
